<?xml version="1.0" standalone="no"?>
<!DOCTYPE svg PUBLIC "-//W3C//DTD SVG 1.1//EN" "http://www.w3.org/Graphics/SVG/1.1/DTD/svg11.dtd" >
<svg>
<metadata>
Created by FontForge 20090914 at Fri Feb 24 04:07:24 2012
 By root
Created by Jean Boyault with FontForge 2.0 (http://fontforge.sf.net)
</metadata>
<defs>
<font id="JBLames-Regular" horiz-adv-x="452" >
  <font-face 
    font-family="JBLames"
    font-weight="500"
    font-style="italic"
    font-stretch="normal"
    units-per-em="1500"
    panose-1="2 0 5 3 0 0 0 0 0 0"
    ascent="1200"
    descent="-300"
    x-height="424"
    cap-height="1204"
    bbox="-252 -836 1472.24 1456"
    underline-thickness="75"
    underline-position="-150"
    slope="-8"
    unicode-range="U+0020-U+20AC"
  />
<missing-glyph horiz-adv-x="550" 
d="M50 0v1000h400v-1000h-400zM100 50h300v900h-300v-900z" />
    <glyph glyph-name=".notdef" horiz-adv-x="550" 
d="M50 0v1000h400v-1000h-400zM100 50h300v900h-300v-900z" />
    <glyph glyph-name="uni0000" horiz-adv-x="1500" 
d="M220 724h769v-796h-769v796z" />
    <glyph glyph-name="uni0000" horiz-adv-x="1500" 
d="M220 724h769v-796h-769v796z" />
    <glyph glyph-name="nonmarkingreturn" horiz-adv-x="500" 
 />
    <glyph glyph-name="space" unicode=" " horiz-adv-x="500" 
 />
    <glyph glyph-name="exclam" unicode="!" horiz-adv-x="316" 
d="M236 204q-13 18 -23 27t-23.5 12.5t-29.5 -9.5t-33 -42q22 62 37.5 130t23.5 117.5t13 129t6.5 114.5t3.5 125q2 -8 6 -14t7.5 -9.5t9.5 -5.5t8.5 -2.5t9 -1.5t7.5 -1q18 0 52 48.5t53 87.5l-14 -51.5t-32 -125t-40 -176t-30 -184t-12 -169.5zM74 33q0 2 1 7
q2 9 6.5 18.5t13.5 22t26 20t39 7.5q32 0 41 -17t-9 -36q22 10 29.5 4.5t7.5 -26.5q0 -1 -0.5 -5.5t-1.5 -9t-4.5 -12t-8.5 -14.5q-27 -34 -72 -34q-58 0 -22 43q-22 -14 -34 -4.5t-12 36.5z" />
    <glyph glyph-name="quotedbl" unicode="&#x22;" horiz-adv-x="577" 
d="M426 694q-9 3 -16.5 3t-11.5 -0.5t-8.5 -5t-6 -6.5t-5.5 -8q38 273 40 289.5t4 123.5q8 -15 18.5 -21t19.5 -6.5t22.5 5.5t21 11t22.5 16.5t20 14.5q-103 -206 -120 -416zM254 712q-10 16 -25 12.5t-29.5 -17t-21.5 -30.5q9 54 12.5 76.5t10 72t8 82t1 77.5t-5.5 87
q8 -6 16 -9.5t17 -3t16 1.5t18 6t16 8l17 10t16 9q-90 -216 -66 -382z" />
    <glyph glyph-name="numbersign" unicode="#" horiz-adv-x="680" 
d="M506.929 723.834q1.89453 -4.26465 4.00781 -18.4756q2.1123 -14.2109 5.59375 -25.1191q3.48145 -10.9092 9.30566 -21.8916t16.6729 -12.9473q10.8496 -1.96582 25.8037 5.97363q-90.1475 -225.386 -134.106 -454.517q-16.5527 32.0586 -28.8477 42.4795
q-12.2959 10.4209 -28.0293 5.18164q75.1221 187.821 129.6 479.315zM266.804 621.452q1.31152 -4.0791 2.26367 -17.8945q0.952148 -13.8164 3.19531 -24.3223t6.3877 -20.957q4.14551 -10.4521 12.8643 -11.7939q8.71777 -1.34082 21.3096 7.24902
q-85.4795 -225.802 -133.594 -452.783q-11.7344 30.5322 -21.1729 40.085q-9.43945 9.55273 -22.5195 3.56738q71.2334 188.168 131.266 476.85zM585.465 314.051q-3.55469 -3.02344 -16.5869 -9.07031q-13.0322 -6.04785 -22.5098 -12.4727
q-9.47852 -6.42578 -18.3643 -15.1191q-8.88574 -8.69238 -7.70117 -19.6533q1.18555 -10.9609 13.0332 -23.0557q-241.69 22.6777 -473.902 0q26.0654 24.9453 32.5811 39.6855q6.5166 14.7402 -2.96191 28.3467q201.408 -18.8975 496.412 11.3389zM640.351 551.945
q-3.54004 -2.41113 -16.5234 -7.23438q-12.9824 -4.82227 -22.4238 -9.94727q-9.44238 -5.12402 -18.2939 -12.0566t-7.67188 -15.6738q1.18066 -8.74121 12.9824 -18.3867q-240.768 18.085 -472.094 0q25.9648 19.8936 32.4561 31.6494t-2.9502 22.6064
q200.64 -15.0713 494.519 9.04297z" />
    <glyph glyph-name="dollar" unicode="$" horiz-adv-x="505" 
d="M254.967 568.258q10.6406 13.0752 20.7754 30.9678q10.1338 17.8916 16.2148 30.623q6.08008 12.7314 15.708 40.2578q9.62793 27.5273 12.4141 36.4736l12.9219 41.9785q-73.9805 -428.043 -86.6484 -846.451q-22.8018 33.7207 -55.7383 -0.688477
q33.4434 190.624 45.6045 315.871t18.748 350.968zM326.392 603.792h-1.82617q-36.5137 -1.0459 -65.9521 -14.374q-29.4395 -13.3291 -46.7832 -32.1465t-28.9834 -42.3398q-11.6387 -23.5215 -15.9746 -43.123t-4.33594 -36.3281q0 -20.3848 6.61816 -39.4639
t20.083 -36.5889q13.4639 -17.5107 27.1572 -31.3623q13.6924 -13.8525 33.7744 -30.5791q7.30273 -4.18164 14.3779 -4.18164q7.07422 0 10.7256 1.83008q3.65137 1.8291 8.44336 5.48828q4.79297 3.65918 5.70605 4.18164q-0.913086 -3.13672 -3.19531 -9.93164
t-2.9668 -10.4541t1.14062 -9.66992q1.82617 -6.01074 7.75977 -11.7607q21.4512 -17.7715 35.6006 -31.3623t28.2979 -31.624q14.1494 -18.0332 21.2236 -37.373q7.0752 -19.3398 7.0752 -39.7256q2.28125 -16.7266 2.05371 -33.1914q-0.228516 -16.4658 -6.39062 -31.8857
q-6.16113 -15.4199 -15.29 -29.2715q-9.12793 -13.8516 -24.875 -25.0898q-15.7461 -11.2383 -35.3721 -18.5557t-47.0117 -10.4541q-27.3848 -3.13672 -59.335 -0.522461q-36.5137 0 -80.7861 18.0332t-58.8779 43.123q51.1191 -22.4766 61.1602 20.9082
q15.9746 -27.1807 40.8496 -41.8164t51.3477 -15.6807q26.4727 -1.0459 53.6289 7.5791q27.1572 8.62402 48.3809 25.3506t34.46 40.7715q13.2363 24.0439 13.2363 50.7021q0 14.1133 -5.47754 28.749q-5.47656 14.6357 -13.2363 25.874q-7.75879 11.2373 -22.3643 25.6123
q-14.6055 14.374 -25.5596 23.7832q-10.9541 9.4082 -30.124 24.5664q-14.1484 13.0684 -41.0771 -8.36328q3.65039 9.93164 5.24805 15.4199t1.1416 13.0684q-0.457031 7.5791 -5.02051 12.2832q-20.5391 17.249 -35.1445 32.6689t-28.2988 34.499
q-13.6924 19.0781 -20.7666 40.7705t-7.07422 44.6914q-2.73926 23.5215 1.8252 49.3955t18.4854 52.5322q13.9209 26.6572 35.3721 47.5654q21.4521 20.9082 56.3682 33.1924q34.916 12.2832 78.2764 10.1924q0.913086 0.523438 2.28223 0.523438
q44.7295 0 74.8525 -41.0332q30.124 -41.0322 31.0371 -107.938q-14.1494 38.6807 -41.5342 24.5674q-0.913086 48.6113 -15.5186 73.4404q-14.6055 24.8281 -48.8369 24.8281z" />
    <glyph glyph-name="percent" unicode="%" horiz-adv-x="700" 
d="M539 154l-32 -37q-11 -66 26 -62q104 30 59 78zM633 142q3 -20 2 -38q-1 -22 -18 -45t-35 -42t-20 -29q-82 9 -100.5 65.5t40.5 136.5q12 -4 30 -11l29 -11t26.5 -4t30.5 6q10 -11 15 -28zM130 20q74 71 131 140t86.5 115.5l69.5 110.5t73 109q0 -1 3 -7.5t4 -8t5 -6
t8 -5t11 -1.5t15.5 1t20.5 6.5t27 11.5l-115 -138t-152.5 -190t-111.5 -166q-24 30 -75 28zM192 377q67 -4 68 56q-37 110 -105 6q7 -44 37 -62zM329 476q12 -103 -112 -167q-4 8 -10 13t-10.5 7t-13 1.5t-13 -1.5t-14.5 -4t-14 -3q-12 10 -13 22.5t2.5 31.5t0.5 36
q1 13 -12.5 47t-2.5 48q74 -10 169 32z" />
    <glyph glyph-name="ampersand" unicode="&#x26;" horiz-adv-x="663" 
d="M349 153l-26 75l-36 43l-61 -23q-74 -28 -81 -108q-3 -41 35 -81q64 -19 82 13q11 -17 32 -9.5t33 25.5q16 25 22 65zM292 598q-168 -32 8 -246q8 4 22 18.5t29.5 20.5t40.5 2q-8 10 -10.5 21.5t-1 19.5t6 21.5t5.5 19.5q0 12 4.5 30.5t4.5 25.5q0 87 -109 67zM464 463
l-23 -56l-95 -102l51 -72l106 131q15 -60 83 -12q-5 -8 -44.5 -37.5t-52.5 -44.5q-40 -43 -41 -46t-29 -41v-46q16 -32 40.5 -58t43.5 -39t40 -25t25 -15q-108 33 -108 -44q-24 74 -75 139q-18 -57 -31 -70q-37 -37 -118 -33l-37 1q-87 5 -111 102q-21 91 33.5 145t133.5 80
q-162 162 -43 311l49 24q29 7 55 9q174 14 148 -201z" />
    <glyph glyph-name="quotesingle" unicode="'" horiz-adv-x="306" 
d="M290 800q-18 -27 -28.5 -46t-21 -52t-12.5 -70q-11 -1 -17.5 -4t-14 -10.5t-8.5 -7.5q14 30 25.5 87.5t8.5 109.5q15 -7 22.5 -10t21 -3.5t24.5 6.5z" />
    <glyph glyph-name="parenleft" unicode="(" horiz-adv-x="591" 
d="M147 404q-9 -58 -9 -122q0 -102 24 -217.5t58.5 -206t73 -156t68.5 -82.5q-53 16 -66 5q-12 -9 -6 -39q-70 84 -136 290.5t-66 405.5q0 68 9 129q14 101 52 210.5t85 200t100.5 173t100 138.5t82.5 88q-1 -18 4 -29.5t13.5 -16t23 -4t27 3.5t31.5 9q-54 -26 -127 -104.5
t-143 -184t-126.5 -238.5t-72.5 -253z" />
    <glyph glyph-name="parenright" unicode=")" horiz-adv-x="503" 
d="M447 539q0 -71 -9 -135q-18 -125 -67 -260.5t-110.5 -244.5t-127 -193.5t-119.5 -121.5q35 46 40 76.5t-13 46t-56 23.5q33 -5 80 30.5t96.5 103.5t95.5 154t81.5 190.5t49.5 202.5q9 61 9 128q0 138 -27.5 267t-72.5 215t-96 110q20 -2 32.5 3t17.5 12t4.5 21t-3.5 25.5
t-9 29.5q76 -82 140 -282.5t64 -400.5z" />
    <glyph glyph-name="asterisk" unicode="*" horiz-adv-x="500" 
d="M254.286 -43.9346q-3.54395 3.52832 -9.93359 15.5352q-6.39062 12.0068 -13.6943 21.1123q-7.30273 9.10645 -17.6465 18.1348t-24.8408 10.0566q-14.498 1.02832 -31.7334 -6.64746q58.1074 197.844 55.6875 396.118q29.6152 -26.3809 48.1592 -34.542
t37.4814 -2.74512q-48.4229 -164.87 -43.4795 -417.022zM468 262q-3 -4 -14 -12t-19 -16.5t-15.5 -20t-6.5 -26t11 -30.5q-204 30 -400 0q22 33 27.5 52.5t-2.5 37.5q170 -25 419 15zM417.01 48.3799q-4.99805 -0.169922 -18.126 3.38477q-13.1289 3.55371 -24.7656 4.45703
q-11.6377 0.904297 -25.2988 -0.461914t-24.3291 -11.2354q-10.6689 -9.86914 -16.8623 -27.6885q-104.535 177.728 -250.794 311.611q39.501 3.54785 58.1396 11.4883q18.6387 7.93945 27.6445 25.4551q87.1133 -148.107 274.392 -317.011zM340.1 413.533
q0.865234 -4.92383 -0.826172 -18.4189q-1.69043 -13.4951 -0.964844 -25.1436q0.725586 -11.6494 3.98242 -24.9863q3.25586 -13.3369 14.5146 -22.5283q11.2588 -9.19043 29.7695 -12.8447q-161.444 -128.242 -273.657 -291.699q-9.01562 38.6201 -19.4746 55.9717
q-10.459 17.3525 -29.0596 23.833q134.537 106.868 275.716 315.816z" />
    <glyph glyph-name="plus" unicode="+" horiz-adv-x="500" 
d="M254.286 -43.9346q-3.54395 3.52832 -9.93359 15.5352q-6.39062 12.0068 -13.6943 21.1123q-7.30273 9.10645 -17.6465 18.1348t-24.8408 10.0566q-14.498 1.02832 -31.7334 -6.64746q58.1074 197.844 55.6875 396.118q29.6152 -26.3809 48.1592 -34.542
t37.4814 -2.74512q-48.4229 -164.87 -43.4795 -417.022zM468 262q-3 -4 -14 -12t-19 -16.5t-15.5 -20t-6.5 -26t11 -30.5q-204 30 -400 0q22 33 27.5 52.5t-2.5 37.5q170 -25 419 15z" />
    <glyph glyph-name="comma" unicode="," horiz-adv-x="375" 
d="M98 34q-9 -45 -108 -163q-2 -2 5 -5q27 -12 49 -10q16 30 45.5 56.5t56.5 41.5t52.5 36t34.5 42q-22 -32 -64 -31.5t-71 33.5z" />
    <glyph glyph-name="hyphen" unicode="-" horiz-adv-x="500" 
d="M468 262q-3 -4 -14 -12t-19 -16.5t-15.5 -20t-6.5 -26t11 -30.5q-204 30 -400 0q22 33 27.5 52.5t-2.5 37.5q170 -25 419 15z" />
    <glyph glyph-name="period" unicode="." horiz-adv-x="375" 
d="M74 33q1 3 1 7q2 9 6.5 18.5t13.5 22t26 20t39 7.5q32 0 41 -17t-9 -36q22 10 29.5 4.5t7.5 -26.5q0 -1 -0.5 -5.5t-1.5 -9t-4.5 -12t-8.5 -14.5q-27 -34 -72 -34q-58 0 -22 43q-22 -14 -34 -4.5t-12 36.5z" />
    <glyph glyph-name="slash" unicode="/" horiz-adv-x="663" 
d="M20 -72q2 56 -69 15l210 275l188 262.5t203 313.5q20 -33 80 -5l-151 -199.5l-170 -224t-150 -212t-141 -225.5z" />
    <glyph glyph-name="zero" unicode="0" horiz-adv-x="600" 
d="M497.775 582.581q4.94434 45.123 -0.30957 79.9609q-5.25293 34.8369 -17.6143 54.7451q-12.3604 19.9062 -29.9746 32.8467q-17.6143 12.9395 -34.3008 17.2529q-16.6875 4.3125 -33.375 4.3125q-38.9365 0 -78.4912 -29.1973t-72.6201 -79.2969
q-33.0645 -50.0996 -57.7871 -122.098q-24.7207 -71.998 -34.6094 -152.953q-5.5625 -43.7969 -5.5625 -85.6016q0 -83.6104 17.9229 -149.636q17.9229 -66.0264 52.5332 -105.177t80.9639 -39.1504q38.9365 0 78.4912 29.1973t72.3115 79.2969
q32.7559 50.0996 57.7861 122.098q25.0312 71.998 34.9199 152.953q4.94434 43.7969 4.94434 85.6016q9.88867 143.996 -84.0537 207.035q25.958 -18.5801 59.6406 -29.5293q33.6836 -10.9492 46.0439 0.332031q15.4512 -65.6934 15.4512 -177.838
q0 -43.7959 -5.5625 -89.582q-6.17969 -50.4316 -13.2871 -91.9053t-18.8506 -85.2695t-26.5762 -77.3066t-36.1553 -64.3662q-21.3223 -30.8564 -47.2803 -50.7637t-61.1865 -31.5195q-35.2275 -11.6133 -76.6367 -11.6133q-46.3535 0 -80.3457 16.9219
q-33.9922 16.9209 -54.3877 44.459q-20.3955 27.5391 -32.7559 70.6709q-12.3613 43.1318 -16.6875 88.9189t-4.32617 106.172q0 43.7959 5.5625 89.582q6.18066 49.7686 13.9062 91.9053q7.72559 42.1377 19.7773 84.9375q12.0518 42.8008 27.5029 76.9746
q15.4512 34.1748 37.082 64.6982q21.6318 30.5254 47.5898 50.7637q25.957 20.2393 60.2588 31.8516q34.3008 11.6133 74.4736 11.6133q66.1309 0 101.359 -22.2305q35.2285 -22.2295 54.3877 -70.6699q-14.833 -5.30859 -26.2666 -47.4463
q-11.4346 -42.1367 -13.9062 -81.9512z" />
    <glyph glyph-name="one" unicode="1" horiz-adv-x="597" 
d="M393 817q1 -17 6 -25t11 -7t12.5 4t10.5 6t4 2q-13 -104 -42 -263t-48.5 -305.5t-22.5 -308.5q-11 62 -49 83l101 719q-21 -24 -58 -61l-58.5 -60t-46 -63.5t-39.5 -87.5q-9 3 -16.5 3.5t-26.5 -4t-31.5 -8.5l-32.5 -10.5t-29 -8.5q19 12 39.5 30l39.5 35.5t42 42
l39.5 42.5t40 46.5l37 45l36 45.5l31 40l28.5 37.5t22 30.5zM454 59q-2 -1 -10 -6t-14.5 -9.5t-12 -11t-4.5 -15t9 -17.5q-152 17 -297 0q17 19 21 30t-2 21q126 -14 310 8z" />
    <glyph glyph-name="two" unicode="2" horiz-adv-x="601" 
d="M128 598q16 114 87.5 173.5t175.5 59.5q48 0 87 -18.5t62.5 -49t36 -68t10.5 -77t-17 -73.5q-28 -65 -67.5 -118.5t-84.5 -94.5t-89.5 -76.5l-98.5 -82.5t-95 -94q-14 -15 -27 -47q-17 1 -26.5 -3.5t-10.5 -12t-1.5 -16.5t0.5 -17q-12 3 -15.5 18t-6.5 18q7 14 14 32
t14.5 31.5t20.5 28.5q43 50 110 110.5l122.5 106.5t104.5 91t68.5 79t1.5 54q36 34 42.5 75.5t-12 75t-57 56t-86.5 22.5q-84 0 -142 -46.5t-71 -142.5q-2 -17 -2 -30t1 -22t7 -17t9 -12.5t14 -10.5l15.5 -8.5t19.5 -9.5q-57 -29 28 -111q-61 29 -105.5 97.5t-36.5 129.5z
M454 59q-2 -1 -10 -6t-14.5 -9.5t-12 -11t-4.5 -15t9 -17.5q-152 17 -297 0q17 19 21 30t-2 21q126 -14 310 8z" />
    <glyph glyph-name="three" unicode="3" horiz-adv-x="600" 
d="M256 378q40 -4 85 -30.5t78.5 -73.5t33.5 -100v-1q-1 -65 -60 -102t-139 -39h-3q-54 0 -73 31.5t-12 78.5q-61 -73 -118 57q-6 -43 23 -94.5t79.5 -87t100.5 -35.5q2 0 4 1q62 1 116.5 21t92.5 64t39 104v2q0 68 -41.5 127.5t-103.5 94.5q71 23 127.5 72.5t75.5 119.5
q15 57 -7 114t-72 94t-111 37q-2 0 -5 -1q-88 -2 -169 -66t-93 -138q22 30 41.5 45t36 15t27 -4t26.5 -14.5t23 -13.5q-29 53 2 88.5t108 38.5h3q65 0 112 -58.5t30 -122.5q-9 -32 -33.5 -59.5t-57 -44t-67.5 -25.5t-68.5 -7t-56.5 16q26 -17 40.5 -30.5t23 -27.5t-1 -25.5
t-36.5 -20.5z" />
    <glyph glyph-name="four" unicode="4" horiz-adv-x="600" 
d="M421 -28q-55 4 -105 -24q17 14 30 35.5t20.5 37.5t14.5 49.5t9 46.5l8 53q-56 -3 -105 -0.5t-102.5 -5.5t-88.5 -32q88 53 -17 102q56 32 110.5 106t93 149.5l93 177.5t96.5 165q3 -11 13 -15t28.5 0t33.5 9t42 15.5t39 14.5q-63 -40 -118 -99t-98.5 -127t-80 -134
l-81 -143.5t-84.5 -132.5q17 -1 60.5 -4t65.5 -4t53.5 0.5t53.5 7.5q3 15 11.5 54t12 59t3.5 45t-8 38q14 -8 31 -6.5t27.5 5.5l26.5 10.5t26 8.5q-58 -33 -79 -214q24 -1 44.5 3t29.5 8l28 13q-29 -17 -1 -88q-8 9 -22.5 13t-25 4t-32 -1.5t-28.5 -1.5l-6.5 -27t-7.5 -30
t-6 -28t-5 -34.5t-2 -35t-1 -43.5z" />
    <glyph glyph-name="five" unicode="5" horiz-adv-x="431" 
d="M120 353l-2 -11l-70 6q62 84 86.5 196.5t28.5 261.5q0 -2 2 -7q4 -16 7 -24t10 -20t15 -15.5t21.5 -4t31.5 6.5l-121 -328q29 14 59 14q73 1 115 -65.5t30 -159.5q-11 -94 -68 -159t-125 -66q-41 -1 -95 39.5t-73 82.5q96 -53 116 -2q4 -10 9.5 -26.5t9 -23.5t11.5 -13.5
t21 -6.5q48 1 91.5 52.5t53.5 128.5q8 70 -19 120t-76 49q-38 -1 -69 -25zM448 767q-2 -1 -10 -6t-14.5 -9.5t-12 -11t-4.5 -15t9 -17.5q-152 17 -297 0q17 19 21 30t-2 21q126 -14 310 8z" />
    <glyph glyph-name="six" unicode="6" 
d="M224 424q64 0 104.5 -53.5t40.5 -132.5q-9 -17 5 -44.5t30 -25.5q-11 1 -19.5 -0.5t-14 -7.5t-8 -10.5t-6.5 -14t-6 -13.5q-31 -63 -81 -105t-101 -42q-41 0 -75.5 28.5t-51.5 67t-14 71.5q-3 25 -37 34q10 2 16 5t11.5 11t5.5 20q0 16 0.5 28t2 28t2.5 22.5l4.5 30
t4.5 31.5q12 85 36 167.5t56 153t74.5 114t87.5 43.5q10 0 29.5 -12t43.5 -34t46.5 -61.5t33.5 -86.5q-9 17 -17 27.5t-18.5 18t-22.5 5.5t-25 -13q-12 50 -30.5 78t-39.5 28q-34 0 -75 -56.5t-76.5 -157.5t-52.5 -218q28 36 64 56t73 20zM75 142q4 -52 29.5 -84.5
t63.5 -32.5q37 0 74 32t58 85q13 33 -12 51q12 1 19.5 10.5t9.5 18t2 16.5q0 58 -26.5 97t-68.5 39q-48 0 -92.5 -50.5t-55.5 -127.5q-1 -14 9.5 -21t22.5 -5q-10 -3 -22 -12.5t-11 -15.5z" />
    <glyph glyph-name="seven" unicode="7" horiz-adv-x="510" 
d="M343 688q24 20 48 54.5t35.5 55.5t36.5 71q-145 -446 -212 -892q-25 40 -70 8q65 199 95.5 331t66.5 372zM379 302q-2 -1 -8.5 -4.5l-11 -6t-9.5 -8t-4.5 -11t4.5 -14.5q-109 26 -216 24q24 24 18 39q91 -21 227 -19zM502 824q-3 -4 -14 -12t-19 -16.5t-15.5 -20
t-6.5 -26t11 -30.5q-204 30 -400 0q22 33 27.5 52.5t-2.5 37.5q170 -25 419 15z" />
    <glyph glyph-name="eight" unicode="8" 
d="M210.886 579q-17.7998 -7 -33.8184 -20.5q-16.0195 -13.5 -13.3496 -24.5q9.78906 -50 37.8232 -84.5q28.0332 -34.5 68.9707 -36.5q48.9482 -2 91.666 36.5t55.1768 100.5q3.55957 17 -6.22949 23.5q-9.79004 6.5 -38.2686 14.5q-4.44922 1 -6.22949 2
q22.249 -2 41.3828 9q19.1348 11 20.0244 27q1.7793 55 -34.708 93.5q-36.4883 38.5 -77.4268 38.5q-19.5781 0 -41.8271 -6.5t-47.6123 -22q-25.3643 -15.5 -43.6084 -47.5t-22.6934 -75q-0.890625 -15 9.78906 -22t40.9385 -6zM320.35 812q59.627 0 107.685 -55
t48.0576 -131q0 -59 -20.9141 -110.5t-52.5078 -83.5q-31.5928 -32 -66.7461 -50.5t-65.4121 -18.5q-59.626 0 -107.239 55q-47.6123 55 -47.6123 131q0 116 56.957 190.5t147.732 72.5zM116.956 193q-17.417 -7 -33.0928 -20.5q-15.6748 -13.5 -13.0625 -24.5
q9.5791 -50 37.0107 -84.5q27.4326 -34.5 67.4912 -36.5q47.8965 -2 89.6973 36.5t53.9932 100.5q3.4834 17 -6.09668 23.5q-9.5791 6.5 -37.4463 14.5q-4.35449 1 -6.0957 2q21.7715 -2 40.4941 9q18.7236 11 19.5947 27q1.74121 55 -33.9629 93.5
q-35.7051 38.5 -75.7646 38.5q-19.1582 0 -40.9297 -6.5t-46.5908 -22q-24.8184 -15.5 -42.6709 -47.5t-22.207 -75q-0.871094 -15 9.5791 -22t40.0596 -6zM224.07 426q58.3467 0 105.373 -55q47.0254 -55 47.0254 -131q0 -59 -20.4648 -110.5t-51.3799 -83.5
t-65.3135 -50.5t-64.0078 -18.5q-58.3467 0 -104.938 55q-46.5898 55 -46.5898 131q0 116 55.7344 190.5t144.561 72.5z" />
    <glyph glyph-name="nine" unicode="9" 
d="M245.641 373.872q-63.6484 6.72656 -98.2988 64.1895q-34.6514 57.4629 -26.3438 136.028q10.7383 15.9609 -0.292969 44.7812t-27.1533 28.5137q10.834 -2.15137 19.4453 -1.55273t14.7119 5.9873t9.06055 9.60156q2.95898 4.21289 7.93652 13.2402
q4.97656 9.02734 7.38672 12.7949q37.4551 59.3955 91.5967 95.9102q54.1426 36.5137 104.862 31.1533q40.7754 -4.30859 72.0879 -36.2783q31.3135 -31.9697 44.1719 -72.0449q12.8574 -40.0752 6.40332 -72.5781q0.354492 -25.1787 33.2217 -37.7021
q-10.1553 -0.938477 -16.4385 -3.29102q-6.28223 -2.35352 -12.5938 -9.73145q-6.31055 -7.37793 -7.57227 -19.3115q-1.68262 -15.9121 -3.44238 -27.7939q-1.75879 -11.8818 -4.93359 -27.6357q-3.17383 -15.7549 -4.85254 -22.1133l-7.62988 -29.3623t-7.78809 -30.8545
q-20.873 -83.2715 -53.417 -162.796t-71.7822 -146.274q-39.2383 -66.749 -86.0801 -105.543q-46.8408 -38.7949 -91.5938 -34.0645q-9.94531 1.05078 -28.0762 15.0342t-39.6855 38.3857q-21.5537 24.4014 -39.7764 66.0488q-18.2227 41.6484 -24.2197 89.5459
q7.16309 -17.8525 14.0146 -29.1357q6.85254 -11.2832 16.5059 -19.8457t21.7979 -7.83398q12.1445 0.727539 26.2295 10.3008q6.67578 -50.9863 22.1299 -80.7773t36.3389 -31.998q33.8125 -3.57324 80.5293 48.3076q46.7168 51.8799 92.6436 148.594
q45.9258 96.7148 75.1367 211.285q-31.6318 -32.8594 -69.5371 -48.9658q-37.9062 -16.1064 -74.7031 -12.2178zM423.479 638.663q1.49023 52.1348 -20.4512 87.1357q-21.9424 35.002 -59.7334 38.9961q-36.7969 3.88867 -76.959 -24.0469t-66.6201 -78.4375
q-16.3994 -31.4521 6.57031 -51.9805q-12.0391 0.266602 -20.4971 -8.39355q-8.45801 -8.65918 -11.3408 -16.9023t-3.72363 -16.1992q-6.09961 -57.6816 16.1533 -99.252q22.2529 -41.5713 64.0225 -45.9854q47.7363 -5.04492 97.3027 40.5
q49.5664 45.5459 68.6035 120.967q2.4668 13.8184 -7.23926 21.8828q-9.70703 8.06543 -21.8506 7.33789q10.2598 1.93262 23.1934 10.1191q12.9326 8.18652 12.5693 14.2588z" />
    <glyph glyph-name="colon" unicode=":" horiz-adv-x="375" 
d="M82 66q1 3 1 7q2 9 6.5 18.5t13.5 22t26 20t39 7.5q32 0 41 -17t-9 -36q22 10 29.5 4.5t7.5 -26.5q0 -1 -0.5 -5.5t-1.5 -9t-4.5 -12t-8.5 -14.5q-27 -34 -72 -34q-58 0 -22 43q-22 -14 -34 -4.5t-12 36.5zM121 344q1 3 1 7q2 9 6.5 18.5t13.5 22t26 20t39 7.5
q32 0 41 -17t-9 -36q22 10 29.5 4.5t7.5 -26.5q0 -1 -0.5 -5.5t-1.5 -9t-4.5 -12t-8.5 -14.5q-27 -34 -72 -34q-58 0 -22 43q-22 -14 -34 -4.5t-12 36.5z" />
    <glyph glyph-name="semicolon" unicode=";" horiz-adv-x="457" 
d="M163.661 208.918q0.860352 2.7207 0.860352 6.34668q1.7207 8.15918 5.5918 16.7725q3.87207 8.61328 11.6143 19.9453q7.74316 11.333 22.3672 18.1328q14.625 6.79883 33.5518 6.79883q27.5293 0 35.2715 -15.4121q7.74316 -15.4121 -7.74219 -32.6377
q18.9268 9.06543 25.3789 4.0791t6.45215 -24.0254q0 -0.90625 -0.430664 -4.98633q-0.429688 -4.0791 -1.29004 -8.15918t-3.87109 -10.8799q-3.01172 -6.79883 -7.3125 -13.1455q-23.2285 -30.8252 -61.9414 -30.8252q-49.8965 0 -18.9268 38.9844
q-18.9258 -12.6924 -29.249 -4.0791q-10.3242 8.6123 -10.3242 33.0908zM177.392 16q-8.30176 -45 -99.6152 -163q-1.84473 -2 4.6123 -5q24.9033 -12 45.1953 -10q14.7578 30 41.9678 56.5t52.1133 41.5t48.4238 36t31.8213 42q-20.291 -32 -59.0312 -31.5
q-38.7383 0.5 -65.4873 33.5z" />
    <glyph glyph-name="less" unicode="&#x3c;" horiz-adv-x="696" 
d="M101 405l195 -148l227 -143l-31 -100l-212 192l-268 204l312 187l266 189l26 -102l-280 -138z" />
    <glyph glyph-name="equal" unicode="=" horiz-adv-x="500" 
d="M495 442q-3 -4 -14 -12t-19 -16.5t-15.5 -20t-6.5 -26t11 -30.5q-204 30 -400 0q22 33 27.5 52.5t-2.5 37.5q170 -25 419 15zM444 92q-3 -4 -14 -12t-19 -16.5t-15.5 -20t-6.5 -26t11 -30.5q-204 30 -400 0q22 33 27.5 52.5t-2.5 37.5q170 -25 419 15z" />
    <glyph glyph-name="greater" unicode="&#x3e;" horiz-adv-x="696" 
d="M571 424l31 -21l-32 -20l-286 -178l-261 -192l-26 102l283 146l231 144l-167 119l-257 152l29 100l234 -195z" />
    <glyph glyph-name="question" unicode="?" horiz-adv-x="478" 
d="M252 172q-8 44 -29.5 61.5t-44.5 2.5q16 78 57 142.5t109 137.5q23 25 30.5 53.5t0.5 52t-24.5 42.5t-45.5 25t-61 0q-48 -11 -74 -42.5t-22 -65t36 -51.5q-71 -14 -32 -68q-30 25 -47.5 61.5t-15.5 81.5t31 85q46 63 142 55q87 -7 145 -62q68 -64 31 -141
q-7 -15 -18 -29q-37 -39 -66.5 -78.5t-47 -71t-29.5 -62.5t-17 -52t-7 -40.5t-1.5 -25.5t0.5 -11zM146 60q0 2 1 7q2 9 6 18.5t12 22t23.5 20t35.5 7.5q28 0 36.5 -17t-7.5 -36q20 10 26.5 4.5t6.5 -26.5q-1 -1 -1 -5.5t-1 -9t-4 -12t-8 -14.5q-24 -34 -65 -34q-52 0 -20 43
q-19 -14 -30 -4.5t-11 36.5z" />
    <glyph glyph-name="at" unicode="@" horiz-adv-x="901" 
d="M359 88l25 -23q28 -18 51 -19q50 -1 33 71l-19 79l-7 58q-32 42 -82.5 -10.5t-0.5 -155.5zM561 -140q83 10 124 103l31 -13q-64 -134 -205 -143q-279 -16 -344 247l-15 113q-8 192 173 309q56 36 132 38q195 6 270 -177q88 -215 -128 -357q-70 -12 -106 45
q-5 -38 -92 -20q-114 25 -111 186q1 60 41 96q52 47 118 27l6 42l50 -3q-9 -109 -5 -141q14 -99 49 -160q25 -45 67 -9q72 64 87 145q27 153 -111 233q-155 89 -302 -37q-140 -130 -53 -384q93 -168 324 -140z" />
    <glyph glyph-name="A" unicode="A" horiz-adv-x="664" 
d="M399 1169q15 -11 29 -15t25 -3.5t22 7.5t18.5 14t16.5 20t13.5 21.5l12 23t10.5 19.5q-5 -109 -6 -206t-0.5 -171t7 -161t11.5 -140t19 -146t22 -142l27.5 -166l30.5 -181l-9 9q-19 18 -28.5 26t-24.5 17.5t-26.5 7.5t-22.5 -13l-12 385q-60 -17 -112 -24t-118 -2
t-133 26l-121 -391q-12 34 -62 7q-16 -8 -58 -37q73 136 138.5 283.5t127 318.5t101.5 293zM191 425q68 -21 133 -24.5t105 3t99 21.5l-41 379l-36 250l-111 -250z" />
    <glyph glyph-name="B" unicode="B" horiz-adv-x="711" 
d="M660 981q0 -42 -15.5 -81t-37.5 -68t-58.5 -57.5t-65 -46t-72.5 -37.5t-66 -28.5l-58 -21.5q-4 -1 -6 -2q53 -9 101.5 -22.5t103 -37.5t93.5 -55t64.5 -77t25.5 -101q0 -81 -31 -149t-87 -114t-132 -74.5t-166 -29.5t-189 20l86 117q42 -54 92 -74.5t96 -10t91 41.5
t77.5 75t52.5 96.5t20 101.5q0 41 -14 75t-36.5 59t-57 45t-70 32.5t-81.5 22.5t-84 15.5t-85 9.5l-4 1l7 50q84 16 152 40t110.5 48t73.5 54t46 53t23 52t9.5 43.5t1.5 34.5q0 46 -27 82t-84.5 61.5t-146.5 33.5t-214 -3q12 16 10 30t-26.5 26t-71.5 21q76 0 157 -7
t171 -25t160 -45t116 -72t46 -102zM112 938q21 19 41 45t32 44.5t31 58.5t24.5 53l25.5 61q-146 -622 -171 -1230q-45 49 -110 -1q66 277 90 459t37 510z" />
    <glyph glyph-name="C" unicode="C" horiz-adv-x="842" 
d="M542 1180q-69 0 -129 -32.5t-102.5 -87.5t-74.5 -130t-49.5 -159.5t-23.5 -176.5v-39q0 -54 1 -95t6.5 -99.5t15 -102t27.5 -90.5t42.5 -76.5t62.5 -48.5t86 -18q18 0 34.5 1.5t34.5 5.5l29.5 6.5t32.5 9.5t29 10l34 13t34 12q-4 -7 -2 -13.5t2 -11t5 -8t8 -5t10 -3.5
t11 -2.5l12 -1.5q7 -1 10 -1q-159 -59 -282 -62q-62 -1 -115.5 23t-91 68t-66.5 100.5t-46 123t-25.5 132.5t-8.5 133v41q6 92 30.5 182.5t68 171.5t100.5 143.5t132.5 99.5t157.5 37q51 0 91.5 -13t66 -31t47 -46.5t32 -50t21.5 -51.5q-2 2 -11 12.5t-12.5 12t-12.5 4.5
t-19.5 -2.5t-22.5 -18.5q-2 5 -6 14q-10 28 -16 41t-19 31.5t-29.5 26.5t-44 14.5t-65.5 6.5z" />
    <glyph glyph-name="D" unicode="D" horiz-adv-x="845" 
d="M129 65v81l11 14l-1 -2q14 -34 26 -54.5t33.5 -40.5t56 -29t83.5 -9q70 0 131 32t105 87.5t77.5 130t52 159.5t24.5 177v39q0 134 -28 241t-75.5 173t-111 100t-132.5 30.5t-142 -44.5t-137 -118q36 48 31.5 72t-55.5 16q89 65 180 94.5t172 23t153 -48.5t123.5 -114.5
t81.5 -181.5t30 -243v-42q-6 -92 -29.5 -182t-65.5 -171.5t-97.5 -144t-130 -99t-157.5 -36.5q-149 0 -209 90zM148 1017q21 20 41 48.5t32 48.5t31 63t24 56.5t26 65.5q-146 -670 -172 -1325q-44 53 -109 -1q66 299 90 494.5t37 549.5z" />
    <glyph glyph-name="E" unicode="E" horiz-adv-x="716" 
d="M660.033 108q-3.62891 -4 -16.9326 -12t-22.9795 -16.5t-18.7471 -20t-7.8623 -26q1.20996 -14.5 13.3047 -30.5q-246.732 30 -483.789 0q26.6084 33 33.2607 52.5q6.65137 19.5 -3.02441 37.5q205.611 -25 506.77 15zM811.24 1224q-4.9375 -4 -23.041 -12
q-18.1045 -8 -31.2705 -16.5q-13.167 -8.5 -25.5098 -20q-12.3438 -11.5 -10.6982 -26t18.1035 -30.5q-335.745 30 -658.324 0q36.207 33 45.2598 52.5q9.05176 19.5 -4.11523 37.5q279.788 -25 689.596 15zM625.446 652q-3.27832 -4 -15.2998 -12
q-12.0205 -8 -20.7637 -16.5q-8.74219 -8.5 -16.9385 -20t-7.10352 -26t12.0205 -30.5q-222.938 30 -437.133 0q24.042 33 30.0527 52.5t-2.73242 37.5q185.782 -25 457.897 15zM144 1005.98q21 20.25 41 47.9609t32 47.4277q12 19.7178 31 62.3496t24.5 56.4873
l25.5 65.0137q-146 -662.926 -171 -1310.93q-45 52.2246 -110 -1.06543q66 295.226 90 489.2t37 543.556z" />
    <glyph glyph-name="F" unicode="F" horiz-adv-x="716" 
d="M811.24 1224q-4.9375 -4 -23.041 -12q-18.1045 -8 -31.2705 -16.5q-13.167 -8.5 -25.5098 -20q-12.3438 -11.5 -10.6982 -26t18.1035 -30.5q-335.745 30 -658.324 0q36.207 33 45.2598 52.5q9.05176 19.5 -4.11523 37.5q279.788 -25 689.596 15zM625.446 652
q-3.27832 -4 -15.2998 -12q-12.0205 -8 -20.7637 -16.5q-8.74219 -8.5 -16.9385 -20t-7.10352 -26t12.0205 -30.5q-222.938 30 -437.133 0q24.042 33 30.0527 52.5t-2.73242 37.5q185.782 -25 457.897 15zM144 1005.98q21 20.25 41 47.9609t32 47.4277
q12 19.7178 31 62.3496t24.5 56.4873l25.5 65.0137q-146 -662.926 -171 -1310.93q-45 52.2246 -110 -1.06543q66 295.226 90 489.2t37 543.556z" />
    <glyph glyph-name="G" unicode="G" horiz-adv-x="909" 
d="M126 597q-9 -66 -9 -129q0 -127 26.5 -226t80.5 -158t128 -59q39 0 66.5 7t56 29t52 48.5t63.5 79.5q24 -14 42 -15.5t32 8.5t23.5 21t22 30t20.5 29q-52 -137 -142.5 -212.5t-235.5 -74.5q-75 0 -130 25.5t-88 67t-53 106.5t-27 134t-7 160q0 66 9 135q10 75 22.5 138.5
t32 128t44.5 116t60 97.5t77 76.5t97.5 48t120.5 17.5q57 0 102 -12t76.5 -32t54 -53t36 -68t21.5 -85t11 -96t3 -108q-2 76 -21.5 112.5t-65.5 22.5q3 131 -53 200t-164 69q-84 0 -164.5 -74t-139.5 -207.5t-80 -296.5zM915 340q-3 -4 -14 -12t-19 -16.5t-15.5 -20
t-6.5 -26t11 -30.5q-204 30 -400 0q22 33 27.5 52.5t-2.5 37.5q170 -25 419 15z" />
    <glyph glyph-name="H" unicode="H" horiz-adv-x="932" 
d="M698.72 660q-3.61426 -4 -16.8633 -12q-13.25 -8 -22.8867 -16.5q-9.63574 -8.5 -18.6699 -20t-7.8291 -26q1.2041 -14.5 13.25 -30.5q-245.725 30 -481.812 0q26.5 33 33.125 52.5t-3.01172 37.5q204.771 -25 504.698 15zM639 942q21 19 41 45t32 44.5t31 58.5t24.5 53
l25.5 61q-146 -622 -171 -1230q-45 49 -110 -1q66 277 90 459t37 510zM144 942q21 19 41 45t32 44.5t31 58.5t24.5 53l25.5 61q-146 -622 -171 -1230q-45 49 -110 -1q66 277 90 459t37 510z" />
    <glyph glyph-name="I" unicode="I" horiz-adv-x="258" 
d="M144 942q21 19 41 45t32 44.5t31 58.5t24.5 53l25.5 61q-146 -622 -171 -1230q-45 49 -110 -1q66 277 90 459t37 510z" />
    <glyph glyph-name="J" unicode="J" horiz-adv-x="812" 
d="M337 -27q-55 -2 -102 8t-89.5 35t-76.5 71t-57 111q30 4 42 22t15 50t7 42q33 -128 103 -208.5t158 -80.5q48 0 90 23.5t74 63t59 99.5t46 123.5t34.5 145t25 154.5t17 161t11 155t6.5 146l-4 26l3 22q23 -8 45 10.5t36.5 47t23 53.5t8.5 32q-21 -146 -53 -396
q-53 -412 -85 -550q-48 -212 -134 -292q-74 -69 -203 -74zM1001 1254q-4 -3 -17 -11t-23 -16.5t-19 -20t-8 -26t14 -30.5q-246 30 -481 0q27 33 33.5 52.5t-3.5 37.5q205 -25 504 14z" />
    <glyph glyph-name="K" unicode="K" horiz-adv-x="710" 
d="M129 718l30 -7l-7 -56l153.5 123.5l162.5 130t148 131t151 158.5q-8 -28 14 -37t68 0l-703 -571l86 -96.5l98 -109.5l93 -101t102.5 -106.5l94 -88t96.5 -80.5q-20 10 -44.5 17t-55 3t-43.5 -28q-31 49 -70 101t-68.5 88t-83 93l-76 80l-87.5 88l-80 80l23 -39l-30 7z
M114 942q21 19 41 45t32 44.5t31 58.5t24.5 53l25.5 61q-146 -622 -171 -1230q-45 49 -110 -1q66 277 90 459t37 510z" />
    <glyph glyph-name="L" unicode="L" horiz-adv-x="585" 
d="M574 107q-3 -4 -14 -12t-19 -16.5t-15.5 -20t-6.5 -26t11 -30.5q-204 30 -400 0q22 33 27.5 52.5t-2.5 37.5q170 -25 419 15zM144 942q21 19 41 45t32 44.5t31 58.5t24.5 53l25.5 61q-146 -622 -171 -1230q-45 49 -110 -1q66 277 90 459t37 510z" />
    <glyph glyph-name="M" unicode="M" horiz-adv-x="978" 
d="M392 473.202l398 729.284q78 -11.9775 155 67.8711l-78.5 -115.78l-85 -124.431l-75 -113.784q-51.5 -79.1836 -79.5 -127.758l-67.5 -119.107q-39.5 -70.5332 -69.5 -134.745q-30 -64.2109 -56 -130.752q-50 35.9316 -111 0q4 119.773 -8 235.554t-40.5 230.896
t-55 199.954t-69.5 205.943q22 -37.2627 66.5 -57.2256q44.5 -19.9619 83.5 -17.9658q1 -91.8252 12 -199.621t19 -163.69q8 -55.8936 32 -196.959q24 -141.066 29 -167.683zM752 942q21 19 41 45t32 44.5t31 58.5t24.5 53l25.5 61q-146 -622 -171 -1230q-45 49 -110 -1
q66 277 90 459t37 510zM144 942q21 19 41 45t32 44.5t31 58.5t24.5 53l25.5 61q-146 -622 -171 -1230q-45 49 -110 -1q66 277 90 459t37 510z" />
    <glyph glyph-name="N" unicode="N" horiz-adv-x="687" 
d="M563 162q-46 185 -125.5 378.5t-303.5 663.5q27 -32 58 -50.5t57 -10.5l498 -1143q-19 14 -45 48.5l-45.5 62t-45 44.5t-48.5 7zM678 937q21 19 41 45.5t32 45t31 58.5t24.5 52.5l25.5 60.5q-146 -622 -171 -1230q-45 50 -110 0q66 277 90 458.5t37 509.5zM141 941
q22 19 41.5 45t32 44.5t31 58.5t24 53l25.5 61q-145 -622 -171 -1230q-45 49 -109 -1q66 277 89.5 459t36.5 510z" />
    <glyph glyph-name="O" unicode="O" horiz-adv-x="831" 
d="M697 890q8 68 -0.5 120.5t-28.5 82.5t-48.5 49.5t-55.5 26t-54 6.5q-63 0 -127 -44t-117.5 -119.5t-93.5 -184t-56 -230.5q-9 -66 -9 -129q0 -126 29 -225.5t85 -158.5t131 -59q63 0 127 44t117 119.5t93.5 184t56.5 230.5q8 66 8 129q16 217 -136 312q42 -28 96.5 -44.5
t74.5 0.5q25 -99 25 -268q0 -66 -9 -135q-10 -76 -21.5 -138.5t-30.5 -128.5t-43 -116.5t-58.5 -97t-76.5 -76.5t-99 -47.5t-124 -17.5q-75 0 -130 25.5t-88 67t-53 106.5t-27 134t-7 160q0 66 9 135q10 75 22.5 138.5t32 128t44.5 116t60 97.5t77 76.5t97.5 48t120.5 17.5
q107 0 164 -33.5t88 -106.5q-24 -8 -42.5 -71.5t-22.5 -123.5z" />
    <glyph glyph-name="P" unicode="P" horiz-adv-x="799" 
d="M259 1113l5 70l4 -1l-1 -10q53 22 110.5 30.5t113 2t105 -31t87 -63.5t59.5 -99t22 -134q0 -28 -4 -55q-49 -326 -300 -367q-21 -6 -70 -7.5t-112.5 4t-109.5 20.5l-8 -6l4 56l13 10l-1 -10q55 -19 118.5 -23t105.5 0q133 5 210 87t101 244q3 23 3 47q0 66 -20 116
t-55 78.5t-79.5 45.5t-96.5 19.5t-102.5 -3.5t-101.5 -20zM144 942q21 19 41 45t32 44.5t31 58.5t24.5 53l25.5 61q-146 -622 -171 -1230q-45 49 -110 -1q66 277 90 459t37 510z" />
    <glyph glyph-name="Q" unicode="Q" horiz-adv-x="831" 
d="M811.771 -170.083q-5.59961 0.0810547 -20.0957 4.82422t-27.4668 6.4043q-12.9707 1.66016 -28.3281 0.861328q-15.3584 -0.798828 -27.8291 -11.3887t-20.3662 -30.4268q-107.319 206.955 -263.696 366.553q44.3848 1.85352 65.6689 9.82227
q21.2832 7.96875 32.3086 27.3086q89.4326 -172.463 289.805 -373.958zM697 890q8 68 -0.5 120.5t-28.5 82.5t-48.5 49.5t-55.5 26t-54 6.5q-63 0 -127 -44t-117.5 -119.5t-93.5 -184t-56 -230.5q-9 -66 -9 -129q0 -126 29 -225.5t85 -158.5t131 -59q63 0 127 44t117 119.5
t93.5 184t56.5 230.5q8 66 8 129q16 217 -136 312q42 -28 96.5 -44.5t74.5 0.5q25 -99 25 -268q0 -66 -9 -135q-10 -76 -21.5 -138.5t-30.5 -128.5t-43 -116.5t-58.5 -97t-76.5 -76.5t-99 -47.5t-124 -17.5q-75 0 -130 25.5t-88 67t-53 106.5t-27 134t-7 160q0 66 9 135
q10 75 22.5 138.5t32 128t44.5 116t60 97.5t77 76.5t97.5 48t120.5 17.5q107 0 164 -33.5t88 -106.5q-24 -8 -42.5 -71.5t-22.5 -123.5z" />
    <glyph glyph-name="R" unicode="R" horiz-adv-x="799" 
d="M144 1122q0 22 -15.5 32.5t-47 18t-41.5 11.5q274 9 401 -10q267 -39 313 -213q10 -39 10 -84q0 -28 -4 -55q-49 -326 -300 -367l52.5 -119.5l56.5 -128t57 -113t71 -114.5q-21 12 -31.5 17.5t-28 11t-31.5 2t-26 -16.5q-18 74 -47 150.5t-68.5 167.5t-57.5 138
q-47 -1 -67.5 -2t-49 2t-36.5 4t-29 5t-27 5q-4 44 -150 98q234 -67 352 -63q133 5 210 87t101 244q3 23 3 47q0 57 -21.5 102.5t-57.5 75t-84.5 50t-101.5 29.5t-108 10.5t-105 -4.5t-92 -18zM144 942q21 19 41 45t32 44.5t31 58.5t24.5 53l25.5 61q-146 -622 -171 -1230
q-45 49 -110 -1q66 277 90 459t37 510z" />
    <glyph glyph-name="S" unicode="S" horiz-adv-x="899" 
d="M645 1180h-4q-80 -2 -144.5 -27.5t-102.5 -61.5t-63.5 -81t-35 -82.5t-9.5 -69.5q0 -39 14.5 -75.5t44 -70t59.5 -60t74 -58.5q16 -8 31.5 -8t23.5 3.5t18.5 10.5t12.5 8q-2 -6 -7 -19t-6.5 -20t2.5 -18.5t17 -22.5q47 -34 78 -60t62 -60.5t46.5 -71.5t15.5 -76
q5 -32 4.5 -63.5t-14 -61t-33.5 -56t-54.5 -48t-77.5 -35.5t-103 -20t-130 -1q-80 0 -177 34.5t-129 82.5q112 -43 134 40q35 -52 89.5 -80t112.5 -30t117.5 14.5t106 48.5t75.5 78t29 97q0 27 -12 55t-29 49.5t-49 49t-56 45.5t-66 47q-31 25 -90 -16q8 19 11.5 29.5
t2.5 25t-11 23.5q-45 33 -77 62.5t-62 66t-45.5 78t-15.5 85.5q-6 45 4 94.5t40.5 100.5t77.5 91t123.5 63.5t171.5 19.5q2 1 5 1q98 0 164 -78.5t68 -206.5q-31 74 -91 47q-2 93 -34 140.5t-107 47.5z" />
    <glyph glyph-name="T" unicode="T" horiz-adv-x="620" 
d="M680.498 1222q-4.16309 -4 -19.4287 -12q-15.2666 -8 -26.3691 -16.5t-21.5107 -20t-9.02051 -26t15.2656 -30.5q-283.114 30 -555.127 0q30.5322 33 38.165 52.5t-3.46973 37.5q235.929 -25 581.495 15zM262 944q21 19 41 45t32 44.5t31 58.5t24.5 53l25.5 61
q-146 -622 -171 -1230q-45 49 -110 -1q66 277 90 459t37 510z" />
    <glyph glyph-name="U" unicode="U" horiz-adv-x="796" 
d="M598 108l-18 -38q-39 -40 -68 -60.5t-67 -32t-85 -10t-120 6.5q-56 4 -99 25.5t-69.5 55t-42.5 77.5t-17.5 94.5t5.5 106.5q10 72 31.5 210t33.5 224.5t22.5 209t9.5 227.5q20 0 33.5 2.5t31.5 11.5t34.5 29t32.5 52q-126 -527 -180 -973q-16 -116 39 -202t149 -102
q26 -3 58 -4t71.5 8.5t76.5 25.5t73 46.5t61 71.5q0 -5 -1 -16.5t-1 -18t1.5 -14.5t4.5 -13zM676 942q21 19 41 45t32 44.5t31 58.5t24.5 53l25.5 61q-146 -622 -171 -1230q-45 49 -110 -1q66 277 90 459t37 510z" />
    <glyph glyph-name="V" unicode="V" horiz-adv-x="694" 
d="M314 104l398 1096q78 -18 155 102l-78.5 -174l-85 -187l-75 -171t-79.5 -192l-67.5 -179t-69.5 -202.5t-56 -196.5q-50 54 -111 0q4 180 -8 354t-40.5 347t-55 300.5t-69.5 309.5q22 -56 66.5 -86t83.5 -27q1 -138 12 -300t19 -246t32 -296t29 -252z" />
    <glyph glyph-name="W" unicode="W" horiz-adv-x="1252" 
d="M694 104l398 1096q78 -18 155 102l-78.5 -174l-85 -187l-75 -171t-79.5 -192l-67.5 -179t-69.5 -202.5t-56 -196.5q-50 54 -111 0q4 180 -8 354t-40.5 347t-55 300.5t-69.5 309.5q22 -56 66.5 -86t83.5 -27q1 -138 12 -300t19 -246t32 -296t29 -252zM314 104l398 1096
q78 -18 155 102l-78.5 -174l-85 -187l-75 -171t-79.5 -192l-67.5 -179t-69.5 -202.5t-56 -196.5q-50 54 -111 0q4 180 -8 354t-40.5 347t-55 300.5t-69.5 309.5q22 -56 66.5 -86t83.5 -27q1 -138 12 -300t19 -246t32 -296t29 -252z" />
    <glyph glyph-name="X" unicode="X" horiz-adv-x="828" 
d="M691 -64q-21 37 -46 54.5t-50 16.5t-53 -7l-164 545l-103.5 -165.5l-120.5 -208l-98 -171.5q-78 42 -180 -84l481 688q-37 112 -83.5 223.5l-114.5 261.5l-95 211q41 -58 79 -77.5t81 -18.5l167 -547q52 78 103 165l118.5 210.5l95.5 171.5q74 -7 174 96l-470 -702
q35 -106 78.5 -211.5t110 -250.5z" />
    <glyph glyph-name="Y" unicode="Y" horiz-adv-x="814" 
d="M419 649q75 104 132 200.5t112 203t81 151.5q19 -5 52 0.5t51 23.5l-410 -646l-83 -585q-64 28 -86 -49q40 121 60 227.5t33.5 225.5t25.5 188l-49.5 160.5t-58.5 185.5t-54 147.5t-71 165.5q27 -44 94 -44q19 -84 46.5 -175t67.5 -208t57 -172z" />
    <glyph glyph-name="Z" unicode="Z" horiz-adv-x="937" 
d="M1036 1204q-89 -28 -66 -102q-110 -110 -230.5 -250t-202 -244.5l-214 -277l-200.5 -258.5q59 -4 116.5 -4.5t113.5 3t104.5 7.5t105 12.5l97 15t98 18.5l92 19.5t93.5 21.5q-84 -45 -123 -90t-14 -73h-787q3 10 1.5 23t-6.5 25t-24.5 22t-52.5 14l75 56.5t93 77
t116 105.5t132.5 137t154.5 176.5t170 218.5t190 269q-175 11 -342.5 3t-297.5 -41q2 57 -30.5 82.5t-93.5 33.5h932z" />
    <glyph glyph-name="bracketleft" unicode="[" horiz-adv-x="373" 
d="M169 1202l-226 -1604h200l8 54h-133l210 1498h133l8 52h-200z" />
    <glyph glyph-name="backslash" unicode="\" horiz-adv-x="737" 
d="M169 1202l481 -1202h50l-484 1204z" />
    <glyph glyph-name="bracketright" unicode="]" horiz-adv-x="362" 
d="M362 1202l-226 -1604h-190l8 54h127l210 1498h-127l8 52h190z" />
    <glyph glyph-name="asciicircum" unicode="^" horiz-adv-x="492" 
d="M238 654q4 -20 14.5 -33t19.5 -18t26.5 -12t23.5 -10q-36 -9 -73 -24.5t-60 -27.5l-58.5 -31.5l-50.5 -27.5q-4 8 -12.5 12.5t-25 6t-25.5 1.5t-33 -1q69 16 149 64t105 101zM182 555q23 24 30 37.5t4.5 27.5t-1.5 17l29 -25l23.5 -19t24.5 -17l22.5 -10t26.5 -7.5t27 -1
t34 2.5q-2 -55 25 -78q-143 63 -245 73z" />
    <glyph glyph-name="underscore" unicode="_" horiz-adv-x="500" 
d="M534.236 52q-3.54004 -4 -16.5195 -12q-12.9805 -8 -22.4199 -16.5q-9.44043 -8.5 -18.29 -20t-7.66992 -26t12.9795 -30.5q-240.718 30 -471.996 0q25.959 33 32.4492 52.5t-2.9502 37.5q200.599 -25 494.417 15z" />
    <glyph glyph-name="grave" unicode="`" horiz-adv-x="482" 
d="M100 545q23 24 30 37.5t4.5 27.5t-1.5 17l29 -25l23.5 -19t24.5 -17l22.5 -10t26.5 -7.5t27 -1t34 2.5q-2 -55 25 -78q-143 63 -245 73z" />
    <glyph glyph-name="a" unicode="a" 
d="M-6 161q0 21 3 42zM-6 161q0 21 3 42zM396 -10q-66 29 -110 0q3 12 24 80.5t29.5 103.5t16.5 96t4 110q17 -4 33 0t30.5 17t24 24t24.5 31q-91 -265 -76 -462zM101 191q-20 -7 -38 -20.5t-15 -24.5q11 -50 42.5 -84.5t77.5 -36.5q55 -2 103 36.5t62 100.5q4 17 -7 23.5
t-43 14.5q-5 1 -7 2q25 -2 46.5 9t22.5 27q2 55 -39 93.5t-87 38.5q-22 0 -47 -6.5t-53.5 -22t-49 -47.5t-25.5 -75q-1 -15 11 -22t46 -6zM224 424q67 0 121 -55t54 -131q0 -59 -23.5 -110.5t-59 -83.5t-75 -50.5t-73.5 -18.5q-67 0 -120.5 55t-53.5 131q0 116 64 190.5
t166 72.5z" />
    <glyph glyph-name="b" unicode="b" horiz-adv-x="503" 
d="M183 191q-20 -7 -38 -20.5t-15 -24.5q11 -50 42.5 -84.5t77.5 -36.5q55 -2 103 36.5t62 100.5q4 17 -7 23.5t-43 14.5q-5 1 -7 2q25 -2 46.5 9t22.5 27q2 55 -39 93.5t-87 38.5q-22 0 -47 -6.5t-53.5 -22t-49 -47.5t-25.5 -75q-1 -15 11 -22t46 -6zM306 424q67 0 121 -55
t54 -131q0 -59 -23.5 -110.5t-59 -83.5t-75 -50.5t-73.5 -18.5q-67 0 -120.5 55t-53.5 131q0 116 64 190.5t166 72.5zM144 942q21 19 41 45t32 44.5t31 58.5t24.5 53l25.5 61q-146 -622 -171 -1230q-45 49 -110 -1q66 277 90 459t37 510z" />
    <glyph glyph-name="c" unicode="c" horiz-adv-x="422" 
d="M93 196q-2 -18 -2 -35q0 -58 26 -97t68 -39q55 0 88 39q4 -13 9.5 -19.5t14.5 -7.5t15.5 0t18.5 4q5 2 8 2q-64 -68 -154 -68q-67 0 -120.5 55t-53.5 131q0 21 3 42q12 91 84 156t143 65q43 0 83.5 -25t65.5 -67q-2 0 -10.5 1.5t-11 1.5h-10t-10.5 -1.5t-8.5 -4t-9.5 -8
t-7 -12.5q-12 30 -33.5 47.5t-48.5 17.5q-48 0 -92.5 -50.5t-55.5 -127.5z" />
    <glyph glyph-name="d" unicode="d" horiz-adv-x="456" 
d="M395 786.673q21 15.9482 41 37.7705q20 21.8242 32 37.3516q12 15.5283 31 49.1025t24.5 44.4854l25.5 51.2012q-146 -522.079 -171 -1032.41q-45 41.1279 -110 -0.838867q66 232.501 90 385.264t37 428.071zM101 191q-20 -7 -38 -20.5t-15 -24.5q11 -50 42.5 -84.5
t77.5 -36.5q55 -2 103 36.5t62 100.5q4 17 -7 23.5t-43 14.5q-5 1 -7 2q25 -2 46.5 9t22.5 27q2 55 -39 93.5t-87 38.5q-22 0 -47 -6.5t-53.5 -22t-49 -47.5t-25.5 -75q-1 -15 11 -22t46 -6zM224 424q67 0 121 -55t54 -131q0 -59 -23.5 -110.5t-59 -83.5t-75 -50.5
t-73.5 -18.5q-67 0 -120.5 55t-53.5 131q0 116 64 190.5t166 72.5z" />
    <glyph glyph-name="e" unicode="e" 
d="M349 258l49 -37q-71 -21 -113.5 -32t-106 -21t-118.5 -9l-1 47q126 0 290 52zM224 424q67 0 121 -55t54 -131q0 -13 -1 -17q-37 5 -55.5 8t-21 4.5t-2.5 4.5q0 58 -26.5 97t-68.5 39q-48 0 -92.5 -50.5t-55.5 -127.5q-2 -18 -2 -35q0 -58 26 -97t68 -39q67 0 105 59
q10 -19 27.5 -20.5t37.5 5.5q-35 -43 -81.5 -68.5t-88.5 -25.5q-67 0 -120.5 55t-53.5 131q0 21 3 42q12 91 84 156t143 65z" />
    <glyph glyph-name="f" unicode="f" horiz-adv-x="352" 
d="M370 1212q52 1 98 -28.5t70 -75.5q-6 0 -17.5 9l-21 17t-21.5 7.5t-20 -15.5q-15 30 -32.5 41t-43.5 11q-44 0 -81 -28t-64 -80.5t-48.5 -118t-37 -151t-26 -168t-18.5 -179.5q-25 -295 -44 -484.5t-27.5 -243l-13.5 -83.5t-7 -53q-6 8 -13.5 10t-15 -2.5t-15.5 -12
t-16.5 -18.5l-16 -21t-17 -21.5t-17.5 -18.5q32 123 57 276t39 290l29.5 283.5l29.5 268t39.5 232.5t58.5 187.5t87 122t126 47.5zM362 608l-11.5 -8t-15 -11.5t-12.5 -13.5t-5 -18t9 -21q-160 21 -314 0q18 23 22 36.5t-2 25.5q133 -17 329 10z" />
    <glyph glyph-name="g" unicode="g" horiz-adv-x="464" 
d="M117 -757q-45 0 -94.5 59t-49.5 123q0 9 1 19q6 -26 34.5 -48t53.5 -16v-8.5t-1 -7.5q-1 -28 17 -49.5t39 -21.5q56 0 77 28q23 31 41 161q4 29 13 100q52 423 128 822q30 0 72 26t52 46q-54 -163 -93 -319.5t-57.5 -267t-32 -212t-20 -168t-18 -121t-29 -84.5
t-49.5 -45.5t-84 -15.5zM101 191q-20 -7 -38 -20.5t-15 -24.5q11 -50 42.5 -84.5t77.5 -36.5q55 -2 103 36.5t62 100.5q4 17 -7 23.5t-43 14.5q-5 1 -7 2q25 -2 46.5 9t22.5 27q2 55 -39 93.5t-87 38.5q-22 0 -47 -6.5t-53.5 -22t-49 -47.5t-25.5 -75q-1 -15 11 -22t46 -6z
M224 424q67 0 121 -55t54 -131q0 -59 -23.5 -110.5t-59 -83.5t-75 -50.5t-73.5 -18.5q-67 0 -120.5 55t-53.5 131q0 116 64 190.5t166 72.5z" />
    <glyph glyph-name="h" unicode="h" horiz-adv-x="412" 
d="M138 312l13 45q52 73 119 73q55 0 97 -49.5t33 -108.5l-1 -4.5t-2.5 -13t-3 -22.5t-3 -37t-2.5 -53t-1.5 -74t-0.5 -96q-9 21 -21.5 29.5t-28 5t-28 -10.5t-31.5 -20l30 85.5t20.5 67l12.5 47.5t7 37t2.5 24t0.5 20v15q0 48 -23.5 78t-56.5 30q-40 0 -79 -41.5t-56 -91.5
zM144 942q21 19 41 45t32 44.5t31 58.5t24.5 53l25.5 61q-146 -622 -171 -1230q-45 49 -110 -1q66 277 90 459t37 510z" />
    <glyph glyph-name="i" unicode="i" horiz-adv-x="298" 
d="M127.05 547.609q0.932617 2.78223 0.932617 6.49219q1.86719 8.34863 6.06543 17.1602q4.19922 8.81152 12.5967 20.4062q8.39844 11.5947 24.2617 18.5508q15.8623 6.95703 36.3906 6.95703q29.8594 0 38.2578 -15.7686q8.39746 -15.7686 -8.39844 -33.3916
q20.5283 9.27539 27.5264 4.17383q6.99902 -5.10156 6.99902 -24.5801q0 -0.927734 -0.466797 -5.10156t-1.40039 -8.34766q-0.932617 -4.1748 -4.19824 -11.1309q-3.2666 -6.95703 -7.93164 -13.4492q-25.1943 -31.5371 -67.1836 -31.5371q-54.1201 0 -20.5283 39.8848
q-20.5283 -12.9863 -31.7256 -4.17383q-11.1973 8.81152 -11.1973 33.8555zM164 -10q-66 29 -110 0q3 12 24 80.5t29.5 103.5t16.5 96t4 110q17 -4 33 0t30.5 17t24 24t24.5 31q-91 -265 -76 -462z" />
    <glyph glyph-name="j" unicode="j" horiz-adv-x="327" 
d="M-108 -757q-46 3 -95 60.5t-49 121.5q0 9 1 19q6 -26 34.5 -48t53.5 -16v-8.5t-1 -7.5q-1 -28 17 -49.5t39 -21.5q56 0 77 28q23 31 41 161q4 29 13 100q52 423 128 822q31 0 78 24.5t57 43.5q-54 -163 -94 -320t-60 -268t-35 -213.5t-22.5 -169t-20 -121t-30.5 -83.5
t-50 -43t-82 -11zM116 812zM144 629q0 2 1 7q2 9 6 18.5t13 22t26 20t40 7.5q31 0 40.5 -17t-8.5 -36q22 10 29 4.5t7 -26.5q0 -1 -0.5 -5.5t-1.5 -9t-4 -12t-8 -14.5q-28 -34 -73 -34q-58 0 -22 43q-22 -14 -33.5 -4.5t-11.5 36.5z" />
    <glyph glyph-name="k" unicode="k" horiz-adv-x="393" 
d="M103 232l209 172h108l-282 -208l230 -196h-110l-164 169q1 19 5.5 34.5t3.5 28.5zM144 942q21 19 41 45t32 44.5t31 58.5t24.5 53l25.5 61q-146 -622 -171 -1230q-45 49 -110 -1q66 277 90 459t37 510z" />
    <glyph glyph-name="l" unicode="l" horiz-adv-x="258" 
d="M144 942q21 19 41 45t32 44.5t31 58.5t24.5 53l25.5 61q-146 -622 -171 -1230q-45 49 -110 -1q66 277 90 459t37 510z" />
    <glyph glyph-name="m" unicode="m" horiz-adv-x="715" 
d="M397 312q10 35 27 60t36 36.5t36 16.5t33 5q33 0 57 -12t37.5 -31.5t21 -49.5t9.5 -61t1 -71.5t-3.5 -76t-4.5 -79.5t-1 -77q-38 82 -109 4q37 84 55.5 153.5t18.5 114.5t-11.5 76.5t-30 45.5t-40.5 14q-40 0 -79 -41.5t-56 -91.5zM165 357q52 73 119 73q57 0 90.5 -33.5
t33.5 -100.5q0 -1 -2 -17t-5 -46t-5.5 -68t-1 -90t6.5 -103q-15 16 -28 22.5t-34.5 3.5t-46.5 -22q24 56 40 102t22.5 79.5t8.5 52t1.5 40t-0.5 22.5q0 48 -23.5 78t-56.5 30q-40 0 -79 -41.5t-56 -91.5q1 72 16 110zM137 -10q-66 29 -110 0q3 12 24 80.5t29.5 103.5
t16.5 96t3 110q18 -4 34 0t30.5 17t24 24t23.5 31q-90 -265 -75 -462z" />
    <glyph glyph-name="n" unicode="n" horiz-adv-x="455" 
d="M92 312l13 45q52 73 119 73q42 0 70.5 -17t41.5 -47t18.5 -65.5t3.5 -80.5t-5.5 -84.5t-7 -84t-2.5 -72.5q-53 54 -109 4q70 170 70 289q0 48 -23.5 78t-56.5 30q-40 0 -79 -41.5t-56 -91.5zM77 -10q-66 29 -110 0q3 12 24 80.5t29.5 103.5t16.5 96t3 110q18 -4 34 0
t30.5 17t24 24t23.5 31q-90 -265 -75 -462z" />
    <glyph glyph-name="o" unicode="o" 
d="M101 191q-20 -7 -38 -20.5t-15 -24.5q11 -50 42.5 -84.5t77.5 -36.5q55 -2 103 36.5t62 100.5q4 17 -7 23.5t-43 14.5q-5 1 -7 2q25 -2 46.5 9t22.5 27q2 55 -39 93.5t-87 38.5q-22 0 -47 -6.5t-53.5 -22t-49 -47.5t-25.5 -75q-1 -15 11 -22t46 -6zM224 424q67 0 121 -55
t54 -131q0 -59 -23.5 -110.5t-59 -83.5t-75 -50.5t-73.5 -18.5q-67 0 -120.5 55t-53.5 131q0 116 64 190.5t166 72.5z" />
    <glyph glyph-name="p" unicode="p" horiz-adv-x="497" 
d="M14 -538q-21 -19 -41 -45t-32 -44.5t-31 -58.5t-24 -53t-26 -61q140 598 165 1200q40 -5 67 10t58 64q-68 -281 -95.5 -485t-40.5 -527zM147 191q-20 -7 -38 -20.5t-15 -24.5q11 -50 42.5 -84.5t77.5 -36.5q55 -2 103 36.5t62 100.5q4 17 -7 23.5t-43 14.5q-5 1 -7 2
q25 -2 46.5 9t22.5 27q2 55 -39 93.5t-87 38.5q-22 0 -47 -6.5t-53.5 -22t-49 -47.5t-25.5 -75q-1 -15 11 -22t46 -6zM270 424q67 0 121 -55t54 -131q0 -59 -23.5 -110.5t-59 -83.5t-75 -50.5t-73.5 -18.5q-67 0 -120.5 55t-53.5 131q0 116 64 190.5t166 72.5z" />
    <glyph glyph-name="q" unicode="q" horiz-adv-x="515" 
d="M388 -538q-21 -19 -41 -45t-32 -44.5t-31 -58.5t-24.5 -53l-25.5 -61q140 598 165 1200q40 -5 67 10t57 64q-67 -281 -94.5 -485t-40.5 -527zM147 191q-20 -7 -38 -20.5t-15 -24.5q11 -50 42.5 -84.5t77.5 -36.5q55 -2 103 36.5t62 100.5q4 17 -7 23.5t-43 14.5
q-5 1 -7 2q25 -2 46.5 9t22.5 27q2 55 -39 93.5t-87 38.5q-22 0 -47 -6.5t-53.5 -22t-49 -47.5t-25.5 -75q-1 -15 11 -22t46 -6zM270 424q67 0 121 -55t54 -131q0 -59 -23.5 -110.5t-59 -83.5t-75 -50.5t-73.5 -18.5q-67 0 -120.5 55t-53.5 131q0 116 64 190.5t166 72.5z
" />
    <glyph glyph-name="r" unicode="r" horiz-adv-x="466" 
d="M193 357q21 29 65.5 51t83.5 22q100 0 100 -158q-10 19 -18 29t-19.5 9.5t-24.5 -18.5q0 48 -17 68t-51 20q-40 0 -79 -41.5t-56 -91.5q0 50 16 110zM162 -10q-66 29 -110 0q3 12 24 80.5t29.5 103.5t16.5 96t4 110q17 -4 33 0t30.5 17t24 24t24.5 31q-91 -265 -76 -462z
" />
    <glyph glyph-name="s" unicode="s" horiz-adv-x="419" 
d="M219 380q-47 0 -78 -23t-31 -57q-1 -9 1.5 -16.5t9.5 -14t12 -10.5t17.5 -9l19 -7.5t23 -8t21.5 -7.5q2 0 6.5 -2t7.5 -2.5t9 -1t11.5 1.5t14.5 6.5t19 12.5q-27 -29 -5 -42q54 -35 56 -102q0 -27 -3 -44t-14 -34t-34.5 -25.5t-61.5 -10.5q-49 -3 -84.5 2.5t-55.5 14
t-34.5 27t-19.5 30.5t-13 36q3 -2 11 -9t13 -9.5t14.5 -0.5t20.5 12q0 -26 41 -47t109 -10q68 12 62 71q-3 31 -24 50.5t-56 35.5q-23 10 -59 -27q28 38 -11 56q-35 15 -54 36t-19 54q2 63 41.5 92.5t127.5 30.5q69 1 102 -21.5t46 -80.5q-1 2 -9 11t-10.5 11.5t-10 7.5
t-13 4t-13.5 -4.5t-16 -11.5q-3 15 -9 21t-23.5 10t-54.5 4z" />
    <glyph glyph-name="t" unicode="t" horiz-adv-x="305" 
d="M144 786.673q21 15.9482 41 37.7705q20 21.8242 32 37.3516q12 15.5283 31 49.1025t24.5 44.4854l25.5 51.2012q-146 -522.079 -171 -1032.41q-45 41.1279 -110 -0.838867q66 232.501 90 385.264t37 428.071zM392.064 608.477q-2.07129 -2.75488 -9.66504 -8.26562
q-7.59277 -5.51074 -13.1152 -11.3662t-10.7002 -13.7764q-5.17773 -7.92188 -4.4873 -17.9102t7.59375 -21.0098q-140.823 20.665 -276.123 0q15.1865 22.7314 18.9834 36.1641t-1.72559 25.832q117.353 -17.2217 289.239 10.332z" />
    <glyph glyph-name="u" unicode="u" horiz-adv-x="442" 
d="M268 51q-52 -73 -119 -73q-42 0 -69.5 20t-39 51.5t-17.5 72t-2.5 81t5.5 77.5t5.5 63t-1.5 37q21 -7 38.5 -4t27.5 7.5t19.5 15.5t14.5 19.5l11.5 20t11.5 17.5q-35 -102 -53.5 -166t-22.5 -83t-5.5 -40.5t-2.5 -30.5q0 -48 23 -78t57 -30q42 0 80 32t54 79
q-4 -40 -15 -88zM347 -10q-66 29 -110 0q3 12 24 80.5t29.5 103.5t16.5 96t3 110q18 -4 34 0t30.5 17t23.5 24t24 31q-91 -265 -75 -462z" />
    <glyph glyph-name="v" unicode="v" horiz-adv-x="506" 
d="M206 57q94 135 190 343q36 -8 70.5 3.5t78.5 50.5q-99 -122 -173.5 -236.5t-122.5 -237.5q-29 22 -52.5 22t-53.5 -22q-16 125 -59.5 238.5t-109.5 235.5q34 -40 67 -50.5t71 -3.5q14 -178 94 -343z" />
    <glyph glyph-name="w" unicode="w" horiz-adv-x="760" 
d="M206 57q94 135 190 343q36 -8 70.5 3.5t78.5 50.5q-99 -122 -173.5 -236.5t-122.5 -237.5q-29 22 -52.5 22t-53.5 -22q-16 125 -59.5 238.5t-109.5 235.5q34 -40 67 -50.5t71 -3.5q14 -178 94 -343zM443 57q94 135 190 343q36 -8 70.5 3.5t78.5 50.5
q-99 -122 -173.5 -236.5t-122.5 -237.5q-29 22 -52.5 22t-53.5 -22q-16 125 -59.5 238.5t-109.5 235.5q34 -40 67 -50.5t71 -3.5q14 -178 94 -343z" />
    <glyph glyph-name="x" unicode="x" horiz-adv-x="447" 
d="M317 404q25 -5 59 -1t64 25l-50.5 -49l-58 -57t-48 -53t-54.5 -69q20 -36 46.5 -74t46 -62l52.5 -63.5l49 -59.5q-41 34 -79 50t-82 9q-31 105 -68 161l-22.5 -27t-24.5 -30.5l-21.5 -28.5t-25.5 -36.5t-23 -38.5q-88 -3 -144 -51q103 96 234 257l-22.5 36t-28 40l-25 34
t-30 39.5l-26.5 34t-32 39t-28 34.5q27 -28 57.5 -42t50.5 -16t52 -1q4 -19 12 -42t14 -36t21.5 -43.5t19.5 -37.5q65 72 115 159z" />
    <glyph glyph-name="y" unicode="y" horiz-adv-x="438" 
d="M-48 -730q-14 2 -26 -0.5t-22.5 -11.5t-16 -15t-16 -21t-13.5 -19q231 446 331 792l-201 457q40 -68 128 -52q-1 -73 25 -151.5t76 -181.5q82 193 96 333q39 -6 51.5 1.5t40.5 52.5q-115 -380 -206 -619t-247 -565z" />
    <glyph glyph-name="z" unicode="z" horiz-adv-x="493" 
d="M437 410q-9 -16 -6 -36t25 -36q-51 -22 -103 -59.5t-89 -71.5l-89 -82t-87 -77q4 1 43.5 1.5t48.5 1t41 1.5t46 2.5t38.5 3.5t42 5.5t34.5 7.5q-5 -23 10.5 -43t55.5 -50q-52 21 -124 24.5t-166 -1.5t-138 -3q14 17 11 33.5t-11.5 27.5t-19.5 17q55 25 109 62.5
t88.5 67.5l89 80t83.5 74q-38 -4 -108 -9.5t-126.5 -13t-107.5 -21.5q23 23 27 43.5t-2.5 41.5t-6.5 27q42 -21 105 -25t154.5 2t131.5 5z" />
    <glyph glyph-name="braceleft" unicode="{" horiz-adv-x="500" 
d="M156 167q102 -62 102 -286q0 -83 -16.5 -252t-16.5 -233q0 -94 19.5 -131t59.5 -37v-50q-38 0 -64.5 17t-40 48.5t-19 68t-5.5 84.5q0 66 16.5 236.5t16.5 248.5q0 75 -10.5 127t-31.5 81t-48 41.5t-63 12.5h-2v50h2q54 0 96.5 29t70.5 78.5t51.5 115.5t37.5 140.5
l29.5 152.5t28.5 152.5t33 140.5t43.5 115.5t60 78.5t82.5 29v-50q-47 0 -81 -47.5t-55 -125.5t-38 -174.5t-37 -199t-45.5 -193.5t-70.5 -164t-105 -104z" />
    <glyph glyph-name="bar" unicode="|" horiz-adv-x="394" 
d="M193 -798h-50v1998h50v-1998z" />
    <glyph glyph-name="braceright" unicode="}" horiz-adv-x="545" 
d="M178 1211q44 0 77 -14t54 -37t34 -57t18 -70.5t5 -81.5q0 -83 -26.5 -278.5t-26.5 -274.5q0 -114 33.5 -159t98.5 -46l-1 -50q-58 0 -100.5 -33.5t-66.5 -90t-40.5 -130t-28.5 -155l-24.5 -162.5t-33.5 -154.5t-51.5 -130t-82.5 -90t-123 -33.5v50q57 0 98.5 27.5t67 76
t43.5 111.5t29.5 135.5t22 146.5t25 146.5t34 133t53 108.5t78.5 72q-81 55 -81 227q0 83 26.5 278t26.5 275q0 61 -10 103t-29 65t-42.5 32.5t-56.5 9.5l-1 50h1z" />
    <glyph glyph-name="asciitilde" unicode="~" horiz-adv-x="1500" 
d="M254 747q31 0 75.5 -23.5t81 -52t74 -51.5t56.5 -23q11 0 17 14q4 10 6 25l49 -7q-3 -21 -9 -37q-18 -44 -63 -45q-28 -1 -70 22.5t-78 52t-75.5 52t-63.5 23.5q-3 0 -6 -1q-6 -1 -11 -5q-16 -13 -24 -62l-49 7q11 69 41 94q15 12 34 16q7 1 15 1z" />
    <glyph glyph-name="dieresis" unicode="&#xa8;" horiz-adv-x="492" 
d="M109 586q0 15 16 26.5t33 11.5q31 0 31 -38q0 -14 -16.5 -25.5t-33.5 -11.5q-30 0 -30 37zM279 586q0 15 16 26.5t33 11.5q31 0 31 -38q0 -14 -16.5 -25.5t-33.5 -11.5q-30 0 -30 37z" />
    <glyph glyph-name="guillemotleft" unicode="&#xab;" horiz-adv-x="551" 
d="M-12 174zM59 171q37 -55 92 -106t98 -72l-17.5 6t-21 5.5t-20.5 -4t-28 -18.5q-21 40 -66.5 88t-77.5 74.5t-36 27.5q24 6 58 34.5t62 60.5t59 72l42.5 55.5t17.5 25.5q3 -13 17.5 -17.5t39.5 -3.5t29 1q-30 -13 -67 -43.5t-60.5 -55l-66 -71zM249 171q29 -39 64 -70
t89.5 -68.5t72.5 -51.5q-19 9 -31.5 13t-32 2t-39.5 -14q-10 26 -35 54.5t-52.5 51t-55 42t-43.5 29.5t-18 10q4 1 58 46.5t118 107.5t84 97q11 -19 34 -22t44 2q-155 -117 -257 -229z" />
    <glyph glyph-name="uni00AD" unicode="&#xad;" horiz-adv-x="500" 
d="M468 262q-3 -4 -14 -12t-19 -16.5t-15.5 -20t-6.5 -26t11 -30.5q-204 30 -400 0q22 33 27.5 52.5t-2.5 37.5q170 -25 419 15z" />
    <glyph glyph-name="acute" unicode="&#xb4;" horiz-adv-x="493" 
d="M286 614q4 -20 14.5 -33t19.5 -18t26.5 -12t23.5 -10q-36 -9 -73 -24.5t-60 -27.5l-58.5 -31.5l-50.5 -27.5q-4 8 -12.5 12.5t-25 6t-25.5 1.5t-33 -1q69 16 149 64t105 101z" />
    <glyph glyph-name="cedilla" unicode="&#xb8;" horiz-adv-x="444" 
d="M207 -127h10q52 0 90.5 -31.5t38.5 -81.5q0 -8 -1 -21q-19 -141 -135 -141q-35 0 -80 20l21 55q35 -15 59 -15q3 0 11.5 -0.5t11.5 -0.5t10.5 1.5t11 5t9 10t9 16t7 24t5.5 32.5q1 9 1 14q0 53 -70 53q-11 0 -32 -5l-48 -12l30 213l60 -7z" />
    <glyph glyph-name="guillemotright" unicode="&#xbb;" horiz-adv-x="551" 
d="M500 227zM429 230q-37 55 -92 106t-98 72l17.5 -6t21 -5.5t20.5 4t28 18.5q21 -40 66.5 -88t77.5 -74.5t36 -27.5q-24 -6 -58 -34.5t-62 -60.5t-59 -72l-42.5 -55.5t-17.5 -25.5q-3 13 -17.5 17.5t-39.5 3.5t-29 -1q30 13 67 43.5t60.5 55l66 71zM239 230q-29 39 -64 70
t-89.5 68.5t-72.5 51.5q19 -9 31.5 -13t32 -2t39.5 14q10 -26 35 -54.5t52.5 -51t55 -42t43.5 -29.5t18 -10q-4 -1 -58 -46.5t-118 -107.5t-84 -97q-11 19 -34 22t-44 -2q155 117 257 229z" />
    <glyph glyph-name="Ccedilla" unicode="&#xc7;" horiz-adv-x="842" 
d="M404 -155h10q52 0 90.5 -31.5t38.5 -81.5q0 -8 -1 -21q-19 -141 -135 -141q-35 0 -80 20l21 55q35 -15 59 -15q3 0 11.5 -0.5t11.5 -0.5t10.5 1.5t11 5t9 10t9 16t7 24t5.5 32.5q1 9 1 14q0 53 -70 53q-11 0 -32 -5l-48 -12l30 213l60 -7zM542 1180q-69 0 -129 -32.5
t-102.5 -87.5t-74.5 -130t-49.5 -159.5t-23.5 -176.5v-39q0 -54 1 -95t6.5 -99.5t15 -102t27.5 -90.5t42.5 -76.5t62.5 -48.5t86 -18q18 0 34.5 1.5t34.5 5.5l29.5 6.5t32.5 9.5t29 10l34 13t34 12q-4 -7 -2 -13.5t2 -11t5 -8t8 -5t10 -3.5t11 -2.5l12 -1.5q7 -1 10 -1
q-159 -59 -282 -62q-62 -1 -115.5 23t-91 68t-66.5 100.5t-46 123t-25.5 132.5t-8.5 133v41q6 92 30.5 182.5t68 171.5t100.5 143.5t132.5 99.5t157.5 37q51 0 91.5 -13t66 -31t47 -46.5t32 -50t21.5 -51.5q-2 2 -11 12.5t-12.5 12t-12.5 4.5t-19.5 -2.5t-22.5 -18.5
q-2 5 -6 14q-10 28 -16 41t-19 31.5t-29.5 26.5t-44 14.5t-65.5 6.5z" />
    <glyph glyph-name="Egrave" unicode="&#xc8;" horiz-adv-x="716" 
d="M344 1313q23 24 30 37.5t4.5 27.5t-1.5 17l29 -25l23.5 -19t24.5 -17l22.5 -10t26.5 -7.5t27 -1t34 2.5q-2 -55 25 -78q-143 63 -245 73zM660.033 108q-3.62891 -4 -16.9326 -12t-22.9795 -16.5t-18.7471 -20t-7.8623 -26q1.20996 -14.5 13.3047 -30.5
q-246.732 30 -483.789 0q26.6084 33 33.2607 52.5q6.65137 19.5 -3.02441 37.5q205.611 -25 506.77 15zM811.24 1224q-4.9375 -4 -23.041 -12q-18.1045 -8 -31.2705 -16.5q-13.167 -8.5 -25.5098 -20q-12.3438 -11.5 -10.6982 -26t18.1035 -30.5q-335.745 30 -658.324 0
q36.207 33 45.2598 52.5q9.05176 19.5 -4.11523 37.5q279.788 -25 689.596 15zM625.446 652q-3.27832 -4 -15.2998 -12q-12.0205 -8 -20.7637 -16.5q-8.74219 -8.5 -16.9385 -20t-7.10352 -26t12.0205 -30.5q-222.938 30 -437.133 0q24.042 33 30.0527 52.5t-2.73242 37.5
q185.782 -25 457.897 15zM144 1005.98q21 20.25 41 47.9609t32 47.4277q12 19.7178 31 62.3496t24.5 56.4873l25.5 65.0137q-146 -662.926 -171 -1310.93q-45 52.2246 -110 -1.06543q66 295.226 90 489.2t37 543.556z" />
    <glyph glyph-name="Eacute" unicode="&#xc9;" horiz-adv-x="716" 
d="M543 1412q4 -20 14.5 -33t19.5 -18t26.5 -12t23.5 -10q-36 -9 -73 -24.5t-60 -27.5l-58.5 -31.5l-50.5 -27.5q-4 8 -12.5 12.5t-25 6t-25.5 1.5t-33 -1q69 16 149 64t105 101zM660.033 108q-3.62891 -4 -16.9326 -12t-22.9795 -16.5t-18.7471 -20t-7.8623 -26
q1.20996 -14.5 13.3047 -30.5q-246.732 30 -483.789 0q26.6084 33 33.2607 52.5q6.65137 19.5 -3.02441 37.5q205.611 -25 506.77 15zM811.24 1224q-4.9375 -4 -23.041 -12q-18.1045 -8 -31.2705 -16.5q-13.167 -8.5 -25.5098 -20q-12.3438 -11.5 -10.6982 -26
t18.1035 -30.5q-335.745 30 -658.324 0q36.207 33 45.2598 52.5q9.05176 19.5 -4.11523 37.5q279.788 -25 689.596 15zM625.446 652q-3.27832 -4 -15.2998 -12q-12.0205 -8 -20.7637 -16.5q-8.74219 -8.5 -16.9385 -20t-7.10352 -26t12.0205 -30.5q-222.938 30 -437.133 0
q24.042 33 30.0527 52.5t-2.73242 37.5q185.782 -25 457.897 15zM144 1005.98q21 20.25 41 47.9609t32 47.4277q12 19.7178 31 62.3496t24.5 56.4873l25.5 65.0137q-146 -662.926 -171 -1310.93q-45 52.2246 -110 -1.06543q66 295.226 90 489.2t37 543.556z" />
    <glyph glyph-name="Ecircumflex" unicode="&#xca;" horiz-adv-x="716" 
d="M488 1434q4 -20 14.5 -33t19.5 -18t26.5 -12t23.5 -10q-36 -9 -73 -24.5t-60 -27.5l-58.5 -31.5l-50.5 -27.5q-4 8 -12.5 12.5t-25 6t-25.5 1.5t-33 -1q69 16 149 64t105 101zM432 1335q23 24 30 37.5t4.5 27.5t-1.5 17l29 -25l23.5 -19t24.5 -17l22.5 -10t26.5 -7.5
t27 -1t34 2.5q-2 -55 25 -78q-143 63 -245 73zM660.033 108q-3.62891 -4 -16.9326 -12t-22.9795 -16.5t-18.7471 -20t-7.8623 -26q1.20996 -14.5 13.3047 -30.5q-246.732 30 -483.789 0q26.6084 33 33.2607 52.5q6.65137 19.5 -3.02441 37.5q205.611 -25 506.77 15z
M811.24 1224q-4.9375 -4 -23.041 -12q-18.1045 -8 -31.2705 -16.5q-13.167 -8.5 -25.5098 -20q-12.3438 -11.5 -10.6982 -26t18.1035 -30.5q-335.745 30 -658.324 0q36.207 33 45.2598 52.5q9.05176 19.5 -4.11523 37.5q279.788 -25 689.596 15zM625.446 652
q-3.27832 -4 -15.2998 -12q-12.0205 -8 -20.7637 -16.5q-8.74219 -8.5 -16.9385 -20t-7.10352 -26t12.0205 -30.5q-222.938 30 -437.133 0q24.042 33 30.0527 52.5t-2.73242 37.5q185.782 -25 457.897 15zM144 1005.98q21 20.25 41 47.9609t32 47.4277
q12 19.7178 31 62.3496t24.5 56.4873l25.5 65.0137q-146 -662.926 -171 -1310.93q-45 52.2246 -110 -1.06543q66 295.226 90 489.2t37 543.556z" />
    <glyph glyph-name="Edieresis" unicode="&#xcb;" horiz-adv-x="716" 
d="M420 1365q0 15 16 26.5t33 11.5q31 0 31 -38q0 -14 -16.5 -25.5t-33.5 -11.5q-30 0 -30 37zM590 1365q0 15 16 26.5t33 11.5q31 0 31 -38q0 -14 -16.5 -25.5t-33.5 -11.5q-30 0 -30 37zM660.033 108q-3.62891 -4 -16.9326 -12t-22.9795 -16.5t-18.7471 -20t-7.8623 -26
q1.20996 -14.5 13.3047 -30.5q-246.732 30 -483.789 0q26.6084 33 33.2607 52.5q6.65137 19.5 -3.02441 37.5q205.611 -25 506.77 15zM811.24 1224q-4.9375 -4 -23.041 -12q-18.1045 -8 -31.2705 -16.5q-13.167 -8.5 -25.5098 -20q-12.3438 -11.5 -10.6982 -26
t18.1035 -30.5q-335.745 30 -658.324 0q36.207 33 45.2598 52.5q9.05176 19.5 -4.11523 37.5q279.788 -25 689.596 15zM625.446 652q-3.27832 -4 -15.2998 -12q-12.0205 -8 -20.7637 -16.5q-8.74219 -8.5 -16.9385 -20t-7.10352 -26t12.0205 -30.5q-222.938 30 -437.133 0
q24.042 33 30.0527 52.5t-2.73242 37.5q185.782 -25 457.897 15zM144 1005.98q21 20.25 41 47.9609t32 47.4277q12 19.7178 31 62.3496t24.5 56.4873l25.5 65.0137q-146 -662.926 -171 -1310.93q-45 52.2246 -110 -1.06543q66 295.226 90 489.2t37 543.556z" />
    <glyph glyph-name="Ocircumflex" unicode="&#xd4;" horiz-adv-x="831" 
d="M553 1431q4 -20 14.5 -33t19.5 -18t26.5 -12t23.5 -10q-36 -9 -73 -24.5t-60 -27.5l-58.5 -31.5l-50.5 -27.5q-4 8 -12.5 12.5t-25 6t-25.5 1.5t-33 -1q69 16 149 64t105 101zM497 1332q23 24 30 37.5t4.5 27.5t-1.5 17l29 -25l23.5 -19t24.5 -17l22.5 -10t26.5 -7.5
t27 -1t34 2.5q-2 -55 25 -78q-143 63 -245 73zM697 890q8 68 -0.5 120.5t-28.5 82.5t-48.5 49.5t-55.5 26t-54 6.5q-63 0 -127 -44t-117.5 -119.5t-93.5 -184t-56 -230.5q-9 -66 -9 -129q0 -126 29 -225.5t85 -158.5t131 -59q63 0 127 44t117 119.5t93.5 184t56.5 230.5
q8 66 8 129q16 217 -136 312q42 -28 96.5 -44.5t74.5 0.5q25 -99 25 -268q0 -66 -9 -135q-10 -76 -21.5 -138.5t-30.5 -128.5t-43 -116.5t-58.5 -97t-76.5 -76.5t-99 -47.5t-124 -17.5q-75 0 -130 25.5t-88 67t-53 106.5t-27 134t-7 160q0 66 9 135q10 75 22.5 138.5t32 128
t44.5 116t60 97.5t77 76.5t97.5 48t120.5 17.5q107 0 164 -33.5t88 -106.5q-24 -8 -42.5 -71.5t-22.5 -123.5z" />
    <glyph glyph-name="Odieresis" unicode="&#xd6;" horiz-adv-x="831" 
d="M414 1304q0 15 16 26.5t33 11.5q31 0 31 -38q0 -14 -16.5 -25.5t-33.5 -11.5q-30 0 -30 37zM584 1304q0 15 16 26.5t33 11.5q31 0 31 -38q0 -14 -16.5 -25.5t-33.5 -11.5q-30 0 -30 37zM697 890q8 68 -0.5 120.5t-28.5 82.5t-48.5 49.5t-55.5 26t-54 6.5q-63 0 -127 -44
t-117.5 -119.5t-93.5 -184t-56 -230.5q-9 -66 -9 -129q0 -126 29 -225.5t85 -158.5t131 -59q63 0 127 44t117 119.5t93.5 184t56.5 230.5q8 66 8 129q16 217 -136 312q42 -28 96.5 -44.5t74.5 0.5q25 -99 25 -268q0 -66 -9 -135q-10 -76 -21.5 -138.5t-30.5 -128.5
t-43 -116.5t-58.5 -97t-76.5 -76.5t-99 -47.5t-124 -17.5q-75 0 -130 25.5t-88 67t-53 106.5t-27 134t-7 160q0 66 9 135q10 75 22.5 138.5t32 128t44.5 116t60 97.5t77 76.5t97.5 48t120.5 17.5q107 0 164 -33.5t88 -106.5q-24 -8 -42.5 -71.5t-22.5 -123.5z" />
    <glyph glyph-name="multiply" unicode="&#xd7;" horiz-adv-x="447" 
d="M317 404q25 -5 59 -1t64 25l-50.5 -49l-58 -57t-48 -53t-54.5 -69q20 -36 46.5 -74t46 -62l52.5 -63.5l49 -59.5q-41 34 -79 50t-82 9q-31 105 -68 161l-22.5 -27t-24.5 -30.5l-21.5 -28.5t-25.5 -36.5t-23 -38.5q-88 -3 -144 -51q103 96 234 257l-22.5 36t-28 40l-25 34
t-30 39.5l-26.5 34t-32 39t-28 34.5q27 -28 57.5 -42t50.5 -16t52 -1q4 -19 12 -42t14 -36t21.5 -43.5t19.5 -37.5q65 72 115 159z" />
    <glyph glyph-name="Ucircumflex" unicode="&#xdb;" horiz-adv-x="796" 
d="M500 1456q4 -20 14.5 -33t19.5 -18t26.5 -12t23.5 -10q-36 -9 -73 -24.5t-60 -27.5l-58.5 -31.5l-50.5 -27.5q-4 8 -12.5 12.5t-25 6t-25.5 1.5t-33 -1q69 16 149 64t105 101zM444 1357q23 24 30 37.5t4.5 27.5t-1.5 17l29 -25l23.5 -19t24.5 -17l22.5 -10t26.5 -7.5
t27 -1t34 2.5q-2 -55 25 -78q-143 63 -245 73zM598 108l-18 -38q-39 -40 -68 -60.5t-67 -32t-85 -10t-120 6.5q-56 4 -99 25.5t-69.5 55t-42.5 77.5t-17.5 94.5t5.5 106.5q10 72 31.5 210t33.5 224.5t22.5 209t9.5 227.5q20 0 33.5 2.5t31.5 11.5t34.5 29t32.5 52
q-126 -527 -180 -973q-16 -116 39 -202t149 -102q26 -3 58 -4t71.5 8.5t76.5 25.5t73 46.5t61 71.5q0 -5 -1 -16.5t-1 -18t1.5 -14.5t4.5 -13zM676 942q21 19 41 45t32 44.5t31 58.5t24.5 53l25.5 61q-146 -622 -171 -1230q-45 49 -110 -1q66 277 90 459t37 510z" />
    <glyph glyph-name="Udieresis" unicode="&#xdc;" horiz-adv-x="796" 
d="M354 1311q0 15 16 26.5t33 11.5q31 0 31 -38q0 -14 -16.5 -25.5t-33.5 -11.5q-30 0 -30 37zM524 1311q0 15 16 26.5t33 11.5q31 0 31 -38q0 -14 -16.5 -25.5t-33.5 -11.5q-30 0 -30 37zM598 108l-18 -38q-39 -40 -68 -60.5t-67 -32t-85 -10t-120 6.5q-56 4 -99 25.5
t-69.5 55t-42.5 77.5t-17.5 94.5t5.5 106.5q10 72 31.5 210t33.5 224.5t22.5 209t9.5 227.5q20 0 33.5 2.5t31.5 11.5t34.5 29t32.5 52q-126 -527 -180 -973q-16 -116 39 -202t149 -102q26 -3 58 -4t71.5 8.5t76.5 25.5t73 46.5t61 71.5q0 -5 -1 -16.5t-1 -18t1.5 -14.5
t4.5 -13zM676 942q21 19 41 45t32 44.5t31 58.5t24.5 53l25.5 61q-146 -622 -171 -1230q-45 49 -110 -1q66 277 90 459t37 510z" />
    <glyph glyph-name="agrave" unicode="&#xe0;" 
d="M123 526q23 24 30 37.5t4.5 27.5t-1.5 17l29 -25l23.5 -19t24.5 -17l22.5 -10t26.5 -7.5t27 -1t34 2.5q-2 -55 25 -78q-143 63 -245 73zM-6 161q0 21 3 42zM-6 161q0 21 3 42zM396 -10q-66 29 -110 0q3 12 24 80.5t29.5 103.5t16.5 96t4 110q17 -4 33 0t30.5 17t24 24
t24.5 31q-91 -265 -76 -462zM101 191q-20 -7 -38 -20.5t-15 -24.5q11 -50 42.5 -84.5t77.5 -36.5q55 -2 103 36.5t62 100.5q4 17 -7 23.5t-43 14.5q-5 1 -7 2q25 -2 46.5 9t22.5 27q2 55 -39 93.5t-87 38.5q-22 0 -47 -6.5t-53.5 -22t-49 -47.5t-25.5 -75q-1 -15 11 -22
t46 -6zM224 424q67 0 121 -55t54 -131q0 -59 -23.5 -110.5t-59 -83.5t-75 -50.5t-73.5 -18.5q-67 0 -120.5 55t-53.5 131q0 116 64 190.5t166 72.5z" />
    <glyph glyph-name="aacute" unicode="&#xe1;" 
d="M298 653q4 -20 14.5 -33t19.5 -18t26.5 -12t23.5 -10q-36 -9 -73 -24.5t-60 -27.5l-58.5 -31.5l-50.5 -27.5q-4 8 -12.5 12.5t-25 6t-25.5 1.5t-33 -1q69 16 149 64t105 101zM-6 161q0 21 3 42zM-6 161q0 21 3 42zM396 -10q-66 29 -110 0q3 12 24 80.5t29.5 103.5
t16.5 96t4 110q17 -4 33 0t30.5 17t24 24t24.5 31q-91 -265 -76 -462zM101 191q-20 -7 -38 -20.5t-15 -24.5q11 -50 42.5 -84.5t77.5 -36.5q55 -2 103 36.5t62 100.5q4 17 -7 23.5t-43 14.5q-5 1 -7 2q25 -2 46.5 9t22.5 27q2 55 -39 93.5t-87 38.5q-22 0 -47 -6.5
t-53.5 -22t-49 -47.5t-25.5 -75q-1 -15 11 -22t46 -6zM224 424q67 0 121 -55t54 -131q0 -59 -23.5 -110.5t-59 -83.5t-75 -50.5t-73.5 -18.5q-67 0 -120.5 55t-53.5 131q0 116 64 190.5t166 72.5z" />
    <glyph glyph-name="acircumflex" unicode="&#xe2;" 
d="M281 689.333q4 -23.3438 14.5 -38.5176q10.5 -15.1729 19.5 -21.0088t26.5 -14.0059t23.5 -11.6719q-36 -10.5049 -73 -28.5957q-37 -18.0918 -60 -32.0977l-58.5 -36.7656l-50.5 -32.0977q-4 9.33789 -12.5 14.5898t-25 7.00293t-25.5 1.75098t-33 -1.16699
q69 18.6748 149 74.6992t105 117.885zM225 573.782q23 28.0127 30 43.7695t4.5 32.0967q-2.5 16.3408 -1.5 19.8418l29 -29.1787l23.5 -22.1768q17.5 -16.3398 24.5 -19.8418l22.5 -11.6719t26.5 -8.75391q11 -0.583008 27 -1.16699t34 2.91797q-2 -64.1943 25 -91.04
q-143 73.5322 -245 85.2041zM-6 161q0 21 3 42zM-6 161q0 21 3 42zM396 -10q-66 29 -110 0q3 12 24 80.5t29.5 103.5t16.5 96t4 110q17 -4 33 0t30.5 17t24 24t24.5 31q-91 -265 -76 -462zM101 191q-20 -7 -38 -20.5t-15 -24.5q11 -50 42.5 -84.5t77.5 -36.5q55 -2 103 36.5
t62 100.5q4 17 -7 23.5t-43 14.5q-5 1 -7 2q25 -2 46.5 9t22.5 27q2 55 -39 93.5t-87 38.5q-22 0 -47 -6.5t-53.5 -22t-49 -47.5t-25.5 -75q-1 -15 11 -22t46 -6zM224 424q67 0 121 -55t54 -131q0 -59 -23.5 -110.5t-59 -83.5t-75 -50.5t-73.5 -18.5q-67 0 -120.5 55
t-53.5 131q0 116 64 190.5t166 72.5z" />
    <glyph glyph-name="adieresis" unicode="&#xe4;" 
d="M148 464q0 15 16 26.5t33 11.5q31 0 31 -38q0 -14 -16.5 -25.5t-33.5 -11.5q-30 0 -30 37zM318 464q0 15 16 26.5t33 11.5q31 0 31 -38q0 -14 -16.5 -25.5t-33.5 -11.5q-30 0 -30 37zM-6 161q0 21 3 42zM-6 161q0 21 3 42zM396 -10q-66 29 -110 0q3 12 24 80.5
t29.5 103.5t16.5 96t4 110q17 -4 33 0t30.5 17t24 24t24.5 31q-91 -265 -76 -462zM101 191q-20 -7 -38 -20.5t-15 -24.5q11 -50 42.5 -84.5t77.5 -36.5q55 -2 103 36.5t62 100.5q4 17 -7 23.5t-43 14.5q-5 1 -7 2q25 -2 46.5 9t22.5 27q2 55 -39 93.5t-87 38.5
q-22 0 -47 -6.5t-53.5 -22t-49 -47.5t-25.5 -75q-1 -15 11 -22t46 -6zM224 424q67 0 121 -55t54 -131q0 -59 -23.5 -110.5t-59 -83.5t-75 -50.5t-73.5 -18.5q-67 0 -120.5 55t-53.5 131q0 116 64 190.5t166 72.5z" />
    <glyph glyph-name="ae" unicode="&#xe6;" horiz-adv-x="762" 
d="M649 258l49 -37q-71 -21 -113.5 -32t-106 -21t-118.5 -9l-1 47q126 0 290 52zM524 424q67 0 121 -55t54 -131q0 -13 -1 -17q-37 5 -55.5 8t-21 4.5t-2.5 4.5q0 58 -26.5 97t-68.5 39q-48 0 -92.5 -50.5t-55.5 -127.5q-2 -18 -2 -35q0 -58 26 -97t68 -39q67 0 105 59
q10 -19 27.5 -20.5t37.5 5.5q-35 -43 -81.5 -68.5t-88.5 -25.5q-67 0 -120.5 55t-53.5 131q0 21 3 42q12 91 84 156t143 65zM-6 161q0 21 3 42zM-6 161q0 21 3 42zM396 -10q-66 29 -110 0q3 12 24 80.5t29.5 103.5t16.5 96t4 110q17 -4 33 0t30.5 17t24 24t24.5 31
q-91 -265 -76 -462zM101 191q-20 -7 -38 -20.5t-15 -24.5q11 -50 42.5 -84.5t77.5 -36.5q55 -2 103 36.5t62 100.5q4 17 -7 23.5t-43 14.5q-5 1 -7 2q25 -2 46.5 9t22.5 27q2 55 -39 93.5t-87 38.5q-22 0 -47 -6.5t-53.5 -22t-49 -47.5t-25.5 -75q-1 -15 11 -22t46 -6z
M224 424q67 0 121 -55t54 -131q0 -59 -23.5 -110.5t-59 -83.5t-75 -50.5t-73.5 -18.5q-67 0 -120.5 55t-53.5 131q0 116 64 190.5t166 72.5z" />
    <glyph glyph-name="ccedilla" unicode="&#xe7;" horiz-adv-x="422" 
d="M204.412 -120.403h8.86035q46.0742 0 80.1875 -29.3682q34.1123 -29.3682 34.1123 -75.9834q0 -7.45801 -0.885742 -19.5781q-16.835 -131.456 -119.616 -131.456q-31.0117 0 -70.8838 18.6455l18.6064 51.2773q31.0117 -13.9844 52.2773 -13.9844
q2.6582 0 10.1895 -0.46582q7.53125 -0.466797 10.1895 -0.466797t9.30371 1.39844q6.64453 1.39844 9.74609 4.66211q3.10156 3.2627 7.97461 9.32324q4.87305 6.05957 7.97461 14.917q3.10059 8.85645 6.20215 22.375q3.10059 13.5186 4.87305 30.2998
q0.885742 8.3916 0.885742 13.0527q0 49.4121 -62.0225 49.4121q-9.74707 0 -28.3535 -4.66113l-42.5312 -11.1875l26.582 198.582l53.1631 -6.52637zM93 196q-2 -18 -2 -35q0 -58 26 -97t68 -39q55 0 88 39q4 -13 9.5 -19.5t14.5 -7.5t15.5 0t18.5 4q5 2 8 2
q-64 -68 -154 -68q-67 0 -120.5 55t-53.5 131q0 21 3 42q12 91 84 156t143 65q43 0 83.5 -25t65.5 -67q-2 0 -10.5 1.5t-11 1.5h-10t-10.5 -1.5t-8.5 -4t-9.5 -8t-7 -12.5q-12 30 -33.5 47.5t-48.5 17.5q-48 0 -92.5 -50.5t-55.5 -127.5z" />
    <glyph glyph-name="egrave" unicode="&#xe8;" 
d="M127 525q23 24 30 37.5t4.5 27.5t-1.5 17l29 -25l23.5 -19t24.5 -17l22.5 -10t26.5 -7.5t27 -1t34 2.5q-2 -55 25 -78q-143 63 -245 73zM349 258l49 -37q-71 -21 -113.5 -32t-106 -21t-118.5 -9l-1 47q126 0 290 52zM224 424q67 0 121 -55t54 -131q0 -13 -1 -17
q-37 5 -55.5 8t-21 4.5t-2.5 4.5q0 58 -26.5 97t-68.5 39q-48 0 -92.5 -50.5t-55.5 -127.5q-2 -18 -2 -35q0 -58 26 -97t68 -39q67 0 105 59q10 -19 27.5 -20.5t37.5 5.5q-35 -43 -81.5 -68.5t-88.5 -25.5q-67 0 -120.5 55t-53.5 131q0 21 3 42q12 91 84 156t143 65z" />
    <glyph glyph-name="eacute" unicode="&#xe9;" 
d="M284 660q4 -20 14.5 -33t19.5 -18t26.5 -12t23.5 -10q-36 -9 -73 -24.5t-60 -27.5l-58.5 -31.5l-50.5 -27.5q-4 8 -12.5 12.5t-25 6t-25.5 1.5t-33 -1q69 16 149 64t105 101zM349 258l49 -37q-71 -21 -113.5 -32t-106 -21t-118.5 -9l-1 47q126 0 290 52zM224 424
q67 0 121 -55t54 -131q0 -13 -1 -17q-37 5 -55.5 8t-21 4.5t-2.5 4.5q0 58 -26.5 97t-68.5 39q-48 0 -92.5 -50.5t-55.5 -127.5q-2 -18 -2 -35q0 -58 26 -97t68 -39q67 0 105 59q10 -19 27.5 -20.5t37.5 5.5q-35 -43 -81.5 -68.5t-88.5 -25.5q-67 0 -120.5 55t-53.5 131
q0 21 3 42q12 91 84 156t143 65z" />
    <glyph glyph-name="ecircumflex" unicode="&#xea;" 
d="M258 643q4 -20 14.5 -33t19.5 -18t26.5 -12t23.5 -10q-36 -9 -73 -24.5t-60 -27.5l-58.5 -31.5l-50.5 -27.5q-4 8 -12.5 12.5t-25 6t-25.5 1.5t-33 -1q69 16 149 64t105 101zM202 544q23 24 30 37.5t4.5 27.5t-1.5 17l29 -25l23.5 -19t24.5 -17l22.5 -10t26.5 -7.5t27 -1
t34 2.5q-2 -55 25 -78q-143 63 -245 73zM349 258l49 -37q-71 -21 -113.5 -32t-106 -21t-118.5 -9l-1 47q126 0 290 52zM224 424q67 0 121 -55t54 -131q0 -13 -1 -17q-37 5 -55.5 8t-21 4.5t-2.5 4.5q0 58 -26.5 97t-68.5 39q-48 0 -92.5 -50.5t-55.5 -127.5q-2 -18 -2 -35
q0 -58 26 -97t68 -39q67 0 105 59q10 -19 27.5 -20.5t37.5 5.5q-35 -43 -81.5 -68.5t-88.5 -25.5q-67 0 -120.5 55t-53.5 131q0 21 3 42q12 91 84 156t143 65z" />
    <glyph glyph-name="edieresis" unicode="&#xeb;" 
d="M105 529q0 15 16 26.5t33 11.5q31 0 31 -38q0 -14 -16.5 -25.5t-33.5 -11.5q-30 0 -30 37zM275 529q0 15 16 26.5t33 11.5q31 0 31 -38q0 -14 -16.5 -25.5t-33.5 -11.5q-30 0 -30 37zM349 258l49 -37q-71 -21 -113.5 -32t-106 -21t-118.5 -9l-1 47q126 0 290 52zM224 424
q67 0 121 -55t54 -131q0 -13 -1 -17q-37 5 -55.5 8t-21 4.5t-2.5 4.5q0 58 -26.5 97t-68.5 39q-48 0 -92.5 -50.5t-55.5 -127.5q-2 -18 -2 -35q0 -58 26 -97t68 -39q67 0 105 59q10 -19 27.5 -20.5t37.5 5.5q-35 -43 -81.5 -68.5t-88.5 -25.5q-67 0 -120.5 55t-53.5 131
q0 21 3 42q12 91 84 156t143 65z" />
    <glyph glyph-name="igrave" unicode="&#xec;" horiz-adv-x="298" 
d="M16 515q23 24 30 37.5t4.5 27.5t-1.5 17l29 -25l23.5 -19t24.5 -17l22.5 -10t26.5 -7.5t27 -1t34 2.5q-2 -55 25 -78q-143 63 -245 73zM162 -10q-66 29 -110 0q3 12 24 80.5t29.5 103.5t16.5 96t4 110q17 -4 33 0t30.5 17t24 24t24.5 31q-91 -265 -76 -462z" />
    <glyph glyph-name="iacute" unicode="&#xed;" horiz-adv-x="298" 
d="M317 581q4 -20 14.5 -33t19.5 -18t26.5 -12t23.5 -10q-36 -9 -73 -24.5t-60 -27.5l-58.5 -31.5l-50.5 -27.5q-4 8 -12.5 12.5t-25 6t-25.5 1.5t-33 -1q69 16 149 64t105 101zM162 -10q-66 29 -110 0q3 12 24 80.5t29.5 103.5t16.5 96t4 110q17 -4 33 0t30.5 17t24 24
t24.5 31q-91 -265 -76 -462z" />
    <glyph glyph-name="icircumflex" unicode="&#xee;" horiz-adv-x="298" 
d="M209.991 661q3.83203 -20 13.8906 -33t18.6797 -18t25.3857 -12q16.7637 -7 22.5117 -10q-34.4863 -9 -69.9307 -24.5q-35.4434 -15.5 -57.4766 -27.5l-56.04 -31.5l-48.376 -27.5q-3.83203 8 -11.9746 12.5t-23.9482 6q-15.8066 1.5 -24.4277 1.5t-31.6123 -1
q66.0986 16 142.734 64t100.584 101zM156.347 562q22.0322 24 28.7383 37.5q6.70508 13.5 4.31055 27.5t-1.43652 17l27.7803 -25l22.5117 -19q16.7637 -14 23.4697 -17l21.5537 -10q14.8477 -7 25.3857 -7.5q10.5371 -0.5 25.8643 -1t32.5703 2.5q-1.91602 -55 23.9482 -78
q-136.986 63 -234.696 73zM162 -10q-66 29 -110 0q3 12 24 80.5t29.5 103.5t16.5 96t4 110q17 -4 33 0t30.5 17t24 24t24.5 31q-91 -265 -76 -462z" />
    <glyph glyph-name="idieresis" unicode="&#xef;" horiz-adv-x="298" 
d="M85.5889 560.907q0 13.999 14.9121 24.7324q14.9121 10.7324 30.7559 10.7324q28.8926 0 28.8926 -35.4648q0 -13.0664 -15.3779 -23.7988q-15.3789 -10.7334 -31.2227 -10.7334q-27.96 0 -27.96 34.5322zM244.03 560.907q0 13.999 14.9121 24.7324
q14.9121 10.7324 30.7559 10.7324q28.8926 0 28.8926 -35.4648q0 -13.0664 -15.3789 -23.7988q-15.3779 -10.7334 -31.2217 -10.7334q-27.96 0 -27.96 34.5322zM162 -10q-66 29 -110 0q3 12 24 80.5t29.5 103.5t16.5 96t4 110q17 -4 33 0t30.5 17t24 24t24.5 31
q-91 -265 -76 -462z" />
    <glyph glyph-name="ograve" unicode="&#xf2;" 
d="M1 485q23 24 30 37.5t4.5 27.5t-1.5 17l29 -25l23.5 -19t24.5 -17l22.5 -10t26.5 -7.5t27 -1t34 2.5q-2 -55 25 -78q-143 63 -245 73zM101 191q-20 -7 -38 -20.5t-15 -24.5q11 -50 42.5 -84.5t77.5 -36.5q55 -2 103 36.5t62 100.5q4 17 -7 23.5t-43 14.5q-5 1 -7 2
q25 -2 46.5 9t22.5 27q2 55 -39 93.5t-87 38.5q-22 0 -47 -6.5t-53.5 -22t-49 -47.5t-25.5 -75q-1 -15 11 -22t46 -6zM224 424q67 0 121 -55t54 -131q0 -59 -23.5 -110.5t-59 -83.5t-75 -50.5t-73.5 -18.5q-67 0 -120.5 55t-53.5 131q0 116 64 190.5t166 72.5z" />
    <glyph glyph-name="oacute" unicode="&#xf3;" 
d="M308 693q4 -20 14.5 -33t19.5 -18t26.5 -12t23.5 -10q-36 -9 -73 -24.5t-60 -27.5l-58.5 -31.5l-50.5 -27.5q-4 8 -12.5 12.5t-25 6t-25.5 1.5t-33 -1q69 16 149 64t105 101zM101 191q-20 -7 -38 -20.5t-15 -24.5q11 -50 42.5 -84.5t77.5 -36.5q55 -2 103 36.5t62 100.5
q4 17 -7 23.5t-43 14.5q-5 1 -7 2q25 -2 46.5 9t22.5 27q2 55 -39 93.5t-87 38.5q-22 0 -47 -6.5t-53.5 -22t-49 -47.5t-25.5 -75q-1 -15 11 -22t46 -6zM224 424q67 0 121 -55t54 -131q0 -59 -23.5 -110.5t-59 -83.5t-75 -50.5t-73.5 -18.5q-67 0 -120.5 55t-53.5 131
q0 116 64 190.5t166 72.5z" />
    <glyph glyph-name="ocircumflex" unicode="&#xf4;" 
d="M247 615q4 -20 14.5 -33t19.5 -18t26.5 -12t23.5 -10q-36 -9 -73 -24.5t-60 -27.5l-58.5 -31.5l-50.5 -27.5q-4 8 -12.5 12.5t-25 6t-25.5 1.5t-33 -1q69 16 149 64t105 101zM191 516q23 24 30 37.5t4.5 27.5t-1.5 17l29 -25l23.5 -19t24.5 -17l22.5 -10t26.5 -7.5t27 -1
t34 2.5q-2 -55 25 -78q-143 63 -245 73zM101 191q-20 -7 -38 -20.5t-15 -24.5q11 -50 42.5 -84.5t77.5 -36.5q55 -2 103 36.5t62 100.5q4 17 -7 23.5t-43 14.5q-5 1 -7 2q25 -2 46.5 9t22.5 27q2 55 -39 93.5t-87 38.5q-22 0 -47 -6.5t-53.5 -22t-49 -47.5t-25.5 -75
q-1 -15 11 -22t46 -6zM224 424q67 0 121 -55t54 -131q0 -59 -23.5 -110.5t-59 -83.5t-75 -50.5t-73.5 -18.5q-67 0 -120.5 55t-53.5 131q0 116 64 190.5t166 72.5z" />
    <glyph glyph-name="odieresis" unicode="&#xf6;" 
d="M135 462q0 15 16 26.5t33 11.5q31 0 31 -38q0 -14 -16.5 -25.5t-33.5 -11.5q-30 0 -30 37zM305 462q0 15 16 26.5t33 11.5q31 0 31 -38q0 -14 -16.5 -25.5t-33.5 -11.5q-30 0 -30 37zM101 191q-20 -7 -38 -20.5t-15 -24.5q11 -50 42.5 -84.5t77.5 -36.5q55 -2 103 36.5
t62 100.5q4 17 -7 23.5t-43 14.5q-5 1 -7 2q25 -2 46.5 9t22.5 27q2 55 -39 93.5t-87 38.5q-22 0 -47 -6.5t-53.5 -22t-49 -47.5t-25.5 -75q-1 -15 11 -22t46 -6zM224 424q67 0 121 -55t54 -131q0 -59 -23.5 -110.5t-59 -83.5t-75 -50.5t-73.5 -18.5q-67 0 -120.5 55
t-53.5 131q0 116 64 190.5t166 72.5z" />
    <glyph glyph-name="ugrave" unicode="&#xf9;" horiz-adv-x="442" 
d="M130 557q23 24 30 37.5t4.5 27.5t-1.5 17l29 -25l23.5 -19t24.5 -17l22.5 -10t26.5 -7.5t27 -1t34 2.5q-2 -55 25 -78q-143 63 -245 73zM268 51q-52 -73 -119 -73q-42 0 -69.5 20t-39 51.5t-17.5 72t-2.5 81t5.5 77.5t5.5 63t-1.5 37q21 -7 38.5 -4t27.5 7.5t19.5 15.5
t14.5 19.5l11.5 20t11.5 17.5q-35 -102 -53.5 -166t-22.5 -83t-5.5 -40.5t-2.5 -30.5q0 -48 23 -78t57 -30q42 0 80 32t54 79q-4 -40 -15 -88zM347 -10q-66 29 -110 0q3 12 24 80.5t29.5 103.5t16.5 96t3 110q18 -4 34 0t30.5 17t23.5 24t24 31q-91 -265 -75 -462z" />
    <glyph glyph-name="uacute" unicode="&#xfa;" horiz-adv-x="442" 
d="M318 605q4 -20 14.5 -33t19.5 -18t26.5 -12t23.5 -10q-36 -9 -73 -24.5t-60 -27.5l-58.5 -31.5l-50.5 -27.5q-4 8 -12.5 12.5t-25 6t-25.5 1.5t-33 -1q69 16 149 64t105 101zM268 51q-52 -73 -119 -73q-42 0 -69.5 20t-39 51.5t-17.5 72t-2.5 81t5.5 77.5t5.5 63t-1.5 37
q21 -7 38.5 -4t27.5 7.5t19.5 15.5t14.5 19.5l11.5 20t11.5 17.5q-35 -102 -53.5 -166t-22.5 -83t-5.5 -40.5t-2.5 -30.5q0 -48 23 -78t57 -30q42 0 80 32t54 79q-4 -40 -15 -88zM347 -10q-66 29 -110 0q3 12 24 80.5t29.5 103.5t16.5 96t3 110q18 -4 34 0t30.5 17t23.5 24
t24 31q-91 -265 -75 -462z" />
    <glyph glyph-name="ucircumflex" unicode="&#xfb;" horiz-adv-x="442" 
d="M228 615q4 -20 14.5 -33t19.5 -18t26.5 -12t23.5 -10q-36 -9 -73 -24.5t-60 -27.5l-58.5 -31.5l-50.5 -27.5q-4 8 -12.5 12.5t-25 6t-25.5 1.5t-33 -1q69 16 149 64t105 101zM172 516q23 24 30 37.5t4.5 27.5t-1.5 17l29 -25l23.5 -19t24.5 -17l22.5 -10t26.5 -7.5t27 -1
t34 2.5q-2 -55 25 -78q-143 63 -245 73zM268 51q-52 -73 -119 -73q-42 0 -69.5 20t-39 51.5t-17.5 72t-2.5 81t5.5 77.5t5.5 63t-1.5 37q21 -7 38.5 -4t27.5 7.5t19.5 15.5t14.5 19.5l11.5 20t11.5 17.5q-35 -102 -53.5 -166t-22.5 -83t-5.5 -40.5t-2.5 -30.5q0 -48 23 -78
t57 -30q42 0 80 32t54 79q-4 -40 -15 -88zM347 -10q-66 29 -110 0q3 12 24 80.5t29.5 103.5t16.5 96t3 110q18 -4 34 0t30.5 17t23.5 24t24 31q-91 -265 -75 -462z" />
    <glyph glyph-name="udieresis" unicode="&#xfc;" horiz-adv-x="442" 
d="M116 462q0 15 16 26.5t33 11.5q31 0 31 -38q0 -14 -16.5 -25.5t-33.5 -11.5q-30 0 -30 37zM286 462q0 15 16 26.5t33 11.5q31 0 31 -38q0 -14 -16.5 -25.5t-33.5 -11.5q-30 0 -30 37zM268 51q-52 -73 -119 -73q-42 0 -69.5 20t-39 51.5t-17.5 72t-2.5 81t5.5 77.5t5.5 63
t-1.5 37q21 -7 38.5 -4t27.5 7.5t19.5 15.5t14.5 19.5l11.5 20t11.5 17.5q-35 -102 -53.5 -166t-22.5 -83t-5.5 -40.5t-2.5 -30.5q0 -48 23 -78t57 -30q42 0 80 32t54 79q-4 -40 -15 -88zM347 -10q-66 29 -110 0q3 12 24 80.5t29.5 103.5t16.5 96t3 110q18 -4 34 0t30.5 17
t23.5 24t24 31q-91 -265 -75 -462z" />
    <glyph glyph-name="Idotaccent" unicode="&#x130;" horiz-adv-x="258" 
d="M150 1334q1 3 1 7q2 9 6.5 18.5t13.5 22t26 20t39 7.5q32 0 41 -17t-9 -36q22 10 29.5 4.5t7.5 -26.5q0 -1 -0.5 -5.5t-1.5 -9t-4.5 -12t-8.5 -14.5q-27 -34 -72 -34q-58 0 -22 43q-22 -14 -34 -4.5t-12 36.5zM144 942q21 19 41 45t32 44.5t31 58.5t24.5 53l25.5 61
q-146 -622 -171 -1230q-45 49 -110 -1q66 277 90 459t37 510z" />
    <glyph glyph-name="dotlessi" unicode="&#x131;" horiz-adv-x="298" 
d="M162 -10q-66 29 -110 0q3 12 24 80.5t29.5 103.5t16.5 96t4 110q17 -4 33 0t30.5 17t24 24t24.5 31q-91 -265 -76 -462z" />
    <glyph glyph-name="OE" unicode="&#x152;" horiz-adv-x="1397" 
d="M1321.03 108q-3.62891 -4 -16.9326 -12t-22.9795 -16.5t-18.7471 -20t-7.8623 -26q1.20996 -14.5 13.3047 -30.5q-246.732 30 -483.789 0q26.6084 33 33.2607 52.5q6.65137 19.5 -3.02441 37.5q205.611 -25 506.77 15zM1472.24 1224q-4.9375 -4 -23.041 -12
q-18.1045 -8 -31.2705 -16.5q-13.167 -8.5 -25.5098 -20q-12.3438 -11.5 -10.6982 -26t18.1035 -30.5q-335.745 30 -658.324 0q36.207 33 45.2598 52.5q9.05176 19.5 -4.11523 37.5q279.788 -25 689.596 15zM1286.45 652q-3.27832 -4 -15.2998 -12
q-12.0205 -8 -20.7637 -16.5q-8.74219 -8.5 -16.9385 -20t-7.10352 -26t12.0205 -30.5q-222.938 30 -437.133 0q24.042 33 30.0527 52.5t-2.73242 37.5q185.782 -25 457.897 15zM805 1005.98q21 20.25 41 47.9609t32 47.4277q12 19.7178 31 62.3496t24.5 56.4873
l25.5 65.0137q-146 -662.926 -171 -1310.93q-45 52.2246 -110 -1.06543q66 295.226 90 489.2t37 543.556zM697 890q8 68 -0.5 120.5t-28.5 82.5t-48.5 49.5t-55.5 26t-54 6.5q-63 0 -127 -44t-117.5 -119.5t-93.5 -184t-56 -230.5q-9 -66 -9 -129q0 -126 29 -225.5
t85 -158.5t131 -59q63 0 127 44t117 119.5t93.5 184t56.5 230.5q8 66 8 129q16 217 -136 312q42 -28 96.5 -44.5t74.5 0.5q25 -99 25 -268q0 -66 -9 -135q-10 -76 -21.5 -138.5t-30.5 -128.5t-43 -116.5t-58.5 -97t-76.5 -76.5t-99 -47.5t-124 -17.5q-75 0 -130 25.5t-88 67
t-53 106.5t-27 134t-7 160q0 66 9 135q10 75 22.5 138.5t32 128t44.5 116t60 97.5t77 76.5t97.5 48t120.5 17.5q107 0 164 -33.5t88 -106.5q-24 -8 -42.5 -71.5t-22.5 -123.5z" />
    <glyph glyph-name="oe" unicode="&#x153;" horiz-adv-x="736" 
d="M669 258l49 -37q-71 -21 -113.5 -32t-106 -21t-118.5 -9l-1 47q126 0 290 52zM544 424q67 0 121 -55t54 -131q0 -13 -1 -17q-37 5 -55.5 8t-21 4.5t-2.5 4.5q0 58 -26.5 97t-68.5 39q-48 0 -92.5 -50.5t-55.5 -127.5q-2 -18 -2 -35q0 -58 26 -97t68 -39q67 0 105 59
q10 -19 27.5 -20.5t37.5 5.5q-35 -43 -81.5 -68.5t-88.5 -25.5q-67 0 -120.5 55t-53.5 131q0 21 3 42q12 91 84 156t143 65zM101 191q-20 -7 -38 -20.5t-15 -24.5q11 -50 42.5 -84.5t77.5 -36.5q55 -2 103 36.5t62 100.5q4 17 -7 23.5t-43 14.5q-5 1 -7 2q25 -2 46.5 9
t22.5 27q2 55 -39 93.5t-87 38.5q-22 0 -47 -6.5t-53.5 -22t-49 -47.5t-25.5 -75q-1 -15 11 -22t46 -6zM224 424q67 0 121 -55t54 -131q0 -59 -23.5 -110.5t-59 -83.5t-75 -50.5t-73.5 -18.5q-67 0 -120.5 55t-53.5 131q0 116 64 190.5t166 72.5z" />
    <glyph glyph-name="circumflex" unicode="&#x2c6;" horiz-adv-x="482" 
d="M238 654q4 -20 14.5 -33t19.5 -18t26.5 -12t23.5 -10q-36 -9 -73 -24.5t-60 -27.5l-58.5 -31.5l-50.5 -27.5q-4 8 -12.5 12.5t-25 6t-25.5 1.5t-33 -1q69 16 149 64t105 101zM182 555q23 24 30 37.5t4.5 27.5t-1.5 17l29 -25l23.5 -19t24.5 -17l22.5 -10t26.5 -7.5t27 -1
t34 2.5q-2 -55 25 -78q-143 63 -245 73z" />
    <glyph glyph-name="emdash" unicode="&#x2014;" horiz-adv-x="593" 
d="M585.799 262q-3.76758 -4 -17.583 -12q-13.8164 -8 -23.8643 -16.5t-19.4678 -20q-9.41895 -11.5 -8.16309 -26t13.8154 -30.5q-256.22 30 -502.393 0q27.6318 33 34.5391 52.5q6.9082 19.5 -3.13965 37.5q213.517 -25 526.256 15z" />
    <glyph glyph-name="quoteright" unicode="&#x2019;" horiz-adv-x="306" 
d="M290 800q-18 -27 -28.5 -46t-21 -52t-12.5 -70q-11 -1 -17.5 -4t-14 -10.5t-8.5 -7.5q14 30 25.5 87.5t8.5 109.5q15 -7 22.5 -10t21 -3.5t24.5 6.5z" />
    <glyph glyph-name="bullet" unicode="&#x2022;" 
d="M76 196q11 75 54.5 116.5t93.5 41.5q44 0 69.5 -30t25.5 -86q0 -17 -3 -35q-10 -75 -54 -116.5t-94 -41.5q-43 0 -68.5 30t-25.5 86q0 17 2 35z" />
    <glyph glyph-name="Euro" unicode="&#x20ac;" horiz-adv-x="600" 
d="M337.803 502.904q-1.44141 -3.69141 -8.25391 -12.293q-6.81152 -8.60059 -11.1514 -16.8408q-4.33887 -8.24121 -7.59766 -18.582q-3.25879 -10.3398 0.852539 -20.833q4.11133 -10.4922 15.6406 -19.9053q-167.238 -27.4424 -314.429 -97.3633
q9.72656 29.7891 9.57812 45.5664q-0.148438 15.7764 -10.5645 27.1572q139.365 22.8682 325.925 113.094zM359.803 372.904q-1.44141 -3.69141 -8.25391 -12.293q-6.81152 -8.60059 -11.1514 -16.8408q-4.33887 -8.24121 -7.59766 -18.582
q-3.25879 -10.3398 0.852539 -20.833q4.11133 -10.4922 15.6406 -19.9053q-167.238 -27.4424 -314.429 -97.3633q9.72656 29.7891 9.57812 45.5664q-0.148438 15.7764 -10.5645 27.1572q139.365 22.8682 325.925 113.094zM369.982 772.209q-44.8096 0 -83.7744 -21.4893
q-38.9648 -21.4883 -66.5654 -57.8545q-27.5996 -36.3652 -48.3809 -85.9551t-32.1465 -105.46q-11.3643 -55.8711 -15.2607 -116.701v-25.7861q0 -35.7051 0.649414 -62.8135q0.649414 -27.1094 4.2207 -65.7891q3.57227 -38.6797 9.74219 -67.4414
q6.16895 -28.7627 17.8584 -59.8389q11.6895 -31.0752 27.6006 -50.5811q15.9102 -19.5049 40.5879 -32.0674t55.8496 -11.9014q11.6895 0 22.4043 0.991211q10.7158 0.992188 22.4053 3.63672l19.1572 4.29785q7.46875 1.65332 21.1064 6.28125t18.833 6.6123
l22.0801 8.59473q16.8848 6.6123 22.0801 7.93457q-2.59766 -4.62793 -1.29883 -8.92578t1.29883 -7.27344t3.24707 -5.28906q3.24707 -2.31445 5.19531 -3.30664q1.94824 -0.991211 6.49414 -2.31348q4.5459 -1.32324 7.14355 -1.65332l7.79297 -0.992188
q4.5459 -0.661133 6.49414 -0.661133q-103.257 -39.0098 -183.135 -40.9941q-40.2637 -0.661133 -75.0078 15.208q-34.7432 15.8682 -59.0957 44.9609q-24.3535 29.0928 -43.1865 66.4502t-29.873 81.3271q-11.04 43.9688 -16.5596 87.6074
q-5.52051 43.6387 -5.52051 87.9395v27.1084q3.89648 60.8301 19.8076 120.668q15.9102 59.8379 44.1602 113.395q28.249 53.5566 65.2656 94.8818q37.0166 41.3242 86.0469 65.7891q49.0312 24.4639 102.283 24.4639q33.1201 0 59.4219 -8.5957
q26.3008 -8.5957 42.8613 -20.4971q16.5596 -11.9014 30.5215 -30.7451q13.9629 -18.8447 20.7812 -33.0596q6.81934 -14.2158 13.9629 -34.0518q-1.29883 1.32227 -7.14355 8.26465t-8.11816 7.93457q-2.27246 0.991211 -8.11719 2.97559
q-5.84473 1.9834 -12.6641 -1.65332q-6.81836 -3.63672 -14.6113 -12.2324q-1.29883 3.30664 -3.89648 9.25684q-6.49414 18.5137 -10.3906 27.1094t-12.3389 20.8271q-8.44238 12.2324 -19.1572 17.5215q-10.7158 5.29004 -28.5742 9.58789
q-17.8594 4.29785 -42.5371 4.29785z" />
  </font>
</defs>
</svg>
